<?xml version="1.0" standalone="no"?>
<!DOCTYPE svg PUBLIC "-//W3C//DTD SVG 1.1//EN" "http://www.w3.org/Graphics/SVG/1.1/DTD/svg11.dtd" >
<svg xmlns="http://www.w3.org/2000/svg" xmlns:xlink="http://www.w3.org/1999/xlink" version="1.1">
<metadata></metadata>
<defs>
<font id="phoneticaregular" horiz-adv-x="1175" >
<font-face units-per-em="2048" ascent="1638" descent="-410" />
<missing-glyph horiz-adv-x="567" />
<glyph horiz-adv-x="0" />
<glyph unicode="&#xd;" horiz-adv-x="567" />
<glyph unicode=" "  horiz-adv-x="567" />
<glyph unicode="&#x09;" horiz-adv-x="567" />
<glyph unicode="&#xa0;" horiz-adv-x="567" />
<glyph unicode="!" horiz-adv-x="606" d="M172 106q0 53 40 92.5t91 39.5q53 0 92 -39t39 -93q0 -51 -39 -91t-92 -40q-51 0 -91 40t-40 91zM193 1446q-6 59 110 59q117 0 111 -59q-47 -404 -78 -1045h-66q-31 641 -77 1045z" />
<glyph unicode="&#x22;" horiz-adv-x="757" d="M143 1386q0 119 84 119t84 -119q0 -20 -2 -47l-47 -417q-6 -63 -35 -64q-25 0 -32 64l-50 417q-2 25 -2 47zM444 1391q0 115 84 114q84 0 84 -119q0 -20 -2 -47l-47 -417q-6 -63 -35 -64q-27 0 -32 64l-47 417q-4 29 -5 52z" />
<glyph unicode="#" d="M84 463v119h238l40 299h-223v118h242l61 435h121l-61 -435h270l62 435h120l-61 -435h197v-118h-213l-41 -299h202v-119h-221l-63 -463h-121l63 463h-274l-66 -463h-120l65 463h-217zM442 582h273l41 299h-273z" />
<glyph unicode="$" d="M172 88v287h53q12 -154 107 -238q84 -74 203 -76v615q-82 57 -164 115q-88 63 -127 124q-49 82 -49 197q0 121 105.5 212t248.5 101v80h88v-78q129 0 252 -30q20 -8 20 -29v-256h-53q-31 240 -219 252v-494q86 -68 172 -137q94 -78 137 -153q55 -94 55 -218 q0 -143 -112 -241q-104 -88 -266 -113v-209h-88v199q-180 0 -349 63q-14 8 -14 27zM389 1155q0 -106 160 -223v428q-160 -37 -160 -205zM623 74q76 23 125 90t49 153q0 148 -174 293v-536z" />
<glyph unicode="%" horiz-adv-x="1859" d="M66 1040q0 160 84 279q100 139 272 139t272 -139q84 -119 84 -279q0 -215 -99 -343t-257 -128t-257 128t-99 343zM221 1028q0 -418 201 -418t201 418q0 389 -201 389t-201 -389zM399 0l926 1434h123l-924 -1434h-125zM1081 457q0 160 84 278q100 139 273 139 q172 0 272 -139q84 -119 84 -278q0 -215 -99 -343t-257 -128t-257.5 128t-99.5 343zM1237 444q0 -417 201 -417t200 417q0 389 -200 390q-201 0 -201 -390z" />
<glyph unicode="&#x26;" horiz-adv-x="1669" d="M111 397q0 150 94 248q100 109 289 131q-135 129 -160 164q-72 92 -72 195q0 141 97.5 232t277.5 91q184 0 266 -82v-188h-53q-61 213 -234 213q-70 0 -120 -47q-61 -55 -62 -148q0 -143 221 -352l486 -459q55 117 55 269q0 145 -53 217h-242v41l105 53h604v-41l-99 -53 h-233q4 -68 4 -127q0 -254 -82 -402q231 -221 371 -313v-39h-240q-74 68 -217 205q-178 -229 -487 -230q-252 0 -394 134q-123 117 -122 288zM330 416q0 -147 88 -248q96 -109 254 -109q227 0 385 195l-527 483q-201 -74 -200 -321z" />
<glyph unicode="'" horiz-adv-x="417" d="M125 1386q0 119 84 119t84 -119q0 -20 -2 -47l-47 -417q-6 -63 -35 -64q-25 0 -33 64l-49 417q-2 25 -2 47z" />
<glyph unicode="(" horiz-adv-x="720" d="M154 567q0 596 510 938l18 -37q-346 -264 -346 -882q0 -330 57 -523q78 -262 289 -446l-25 -39q-504 367 -503 989z" />
<glyph unicode=")" horiz-adv-x="720" d="M39 -383q211 184 289 446q57 193 57 523q0 618 -346 882l18 37q510 -342 510 -938q0 -622 -504 -989z" />
<glyph unicode="*" horiz-adv-x="872" d="M70 1108l53 158l248 -99l-17 267h166l-18 -267l250 99l51 -158l-260 -66l172 -206l-135 -99l-144 228l-143 -228l-135 99l172 206z" />
<glyph unicode="+" d="M72 451v135h448v450h135v-450h449v-135h-449v-451h-135v451h-448z" />
<glyph unicode="," horiz-adv-x="587" d="M72 -307q129 158 129 315q0 12 -15 135q-2 20 58.5 73.5t74.5 53.5q25 0 58 -61.5t33 -106.5q-1 -80 -271 -475z" />
<glyph unicode="-" horiz-adv-x="681" d="M86 403v168h510v-168h-510z" />
<glyph unicode="." horiz-adv-x="587" d="M162 106q0 53 40 92.5t91 39.5q53 0 92 -39t39 -93q0 -51 -39 -91t-92 -40q-51 0 -91 40t-40 91z" />
<glyph unicode="/" horiz-adv-x="796" d="M66 -221l536 1726h129l-534 -1726h-131z" />
<glyph unicode="0" d="M61 762q0 264 125 463q147 233 402 233q254 0 401 -233q125 -199 125 -463q0 -358 -146.5 -572.5t-379.5 -214.5t-380 214t-147 573zM279 741q0 -700 309 -700t309 700q0 651 -309 652q-309 0 -309 -652z" />
<glyph unicode="1" d="M211 1257l506 201v-1177q0 -104 10 -162q6 -33 66 -45q35 -8 178 -21v-53h-703v53q166 16 181 19q51 12 63 53q8 29 8 156v870q0 106 -76 106q-37 0 -116 -32l-92 -37z" />
<glyph unicode="2" d="M88 0v102q127 145 289 310q406 412 405 649q0 106 -67.5 181t-182.5 75q-268 0 -309 -309h-53v237q170 213 428 213q178 0 291 -86q123 -92 123 -260q0 -154 -156 -344q-51 -61 -254 -262q-125 -121 -356 -354h573q92 0 150 63q39 45 82 154h71l-127 -369h-907z" />
<glyph unicode="3" d="M98 207q-8 20 11 35l47 37q31 31 43 10l98 -146q74 -109 240 -108q119 0 193.5 99t74.5 251q0 236 -187 303q-70 25 -258 25v88q375 12 375 332q0 121 -61.5 192.5t-147.5 71.5q-190 0 -270 -221l-63 30v158q63 43 169 70q98 25 175 24q414 0 424 -299q4 -143 -99 -248 q-90 -90 -239 -131v-4q168 -16 280 -114q125 -106 127 -269q4 -197 -166 -315q-152 -109 -350 -105q-92 2 -207 31q-104 25 -137 47z" />
<glyph unicode="4" d="M74 479q72 125 282 424q217 307 392 531h118v-875h213v-141h-213v-148q0 -106 8 -155q4 -31 58 -43q23 -6 127 -19v-53h-617v53q184 16 207 33q29 25 29 184v148h-582zM221 559h457v653q-86 -88 -240 -311q-133 -195 -217 -342z" />
<glyph unicode="5" d="M111 229q-14 27 0 39l43 39q27 25 41 6l127 -153q94 -115 229 -115q119 0 199.5 89t80.5 214q0 188 -151 316q-166 137 -471 159l180 611h555l-51 -154h-449l-92 -301q313 -29 492 -195q166 -154 166 -378q0 -197 -156 -320q-139 -111 -330 -111q-109 0 -209 31 q-82 27 -118 60z" />
<glyph unicode="6" d="M123 541q4 342 250 612q255 280 620 305v-102q-268 6 -440 -178q-150 -160 -199 -428l4 -5q141 137 324 138q176 0 287 -109q125 -119 123 -336q-2 -190 -135.5 -326.5t-333.5 -136.5q-221 0 -362.5 152t-137.5 414zM328 498q-6 -205 75.5 -327t223.5 -122q123 0 196 117 q63 98 64 231q0 168 -72 275q-76 115 -213 114q-117 0 -193.5 -78.5t-80.5 -209.5z" />
<glyph unicode="7" d="M207 1171v263h856v-91q-225 -397 -641 -1343h-195q476 791 666 1280h-436q-84 0 -115 -8q-76 -23 -82 -101h-53z" />
<glyph unicode="8" d="M100 373q0 254 308 377q-276 135 -277 350q0 154 139 258q134 100 310 100q178 0 290 -78q121 -84 121 -237q0 -137 -100 -236q-74 -74 -176 -106q166 -76 243 -150q117 -111 117 -262q0 -186 -140 -300t-351 -114q-213 0 -348.5 113t-135.5 285zM283 385 q0 -139 84 -243.5t211 -104.5q137 0 214.5 84t77.5 217t-135 231q-37 29 -262 142q-190 -106 -190 -326zM336 1155q0 -182 323 -317q168 80 168 290q0 117 -65.5 193t-179.5 76q-115 0 -180.5 -70t-65.5 -172z" />
<glyph unicode="9" d="M84 995q2 193 140 328t356 135q207 0 335 -137q141 -150 138 -420q-6 -348 -248 -618q-254 -285 -623 -308v103q268 -2 441 180q150 160 196 426l-4 4q-133 -137 -321 -137q-174 0 -287 108q-125 119 -123 336zM289 1036q0 -168 69 -274q78 -115 215 -115q115 0 193 79 t82 210q6 201 -80 328q-80 121 -203 120q-135 0 -211 -114q-66 -98 -65 -234z" />
<glyph unicode=":" horiz-adv-x="587" d="M162 106q0 53 40 92.5t91 39.5q53 0 92 -39t39 -93q0 -51 -39 -91t-92 -40q-51 0 -91 40t-40 91zM162 852q0 53 40 92t91 39q53 0 92 -39t39 -92q0 -51 -39 -91t-92 -40q-51 0 -91 40t-40 91z" />
<glyph unicode=";" horiz-adv-x="587" d="M66 -287q131 158 131 318q0 14 -15 131q-2 20 58.5 73.5t74.5 53.5q23 0 57 -61.5t34 -106.5q-1 -74 -271 -475zM174 852q0 53 40 92t91 39q53 0 92 -39t39 -92q0 -51 -39 -91t-92 -40q-51 0 -91 40t-40 91z" />
<glyph unicode="&#x3c;" d="M53 463v110l1043 480v-131l-869 -404l869 -403v-131z" />
<glyph unicode="=" d="M72 252v135h1032v-135h-1032zM72 649v135h1032v-135h-1032z" />
<glyph unicode="&#x3e;" d="M80 -16v131l868 403l-868 404v131l1042 -480v-110z" />
<glyph unicode="?" horiz-adv-x="948" d="M106 1323l70 131q29 16 113 33.5t137 17.5q188 0 305 -97t117 -261q0 -115 -80 -219q-47 -63 -168 -166q-98 -84 -127 -156q-24 -61 -24 -196h-93q-4 139 21 221q29 96 127 233q121 168 121 293q0 119 -50.5 200t-136.5 81q-63 0 -129 -70l-102 -108q-14 -14 -33 -7 l-61 43q-16 8 -7 27zM268 106q0 53 40 92.5t91 39.5q53 0 92 -39t39 -93q0 -51 -38.5 -91t-92.5 -40q-51 0 -91 40t-40 91z" />
<glyph unicode="@" horiz-adv-x="1554" d="M25 678q0 340 233 563q227 217 559 217q301 0 507 -180t206 -451q0 -184 -107 -342q-121 -178 -299 -178q-86 0 -147 62q-49 49 -49 90q-70 -59 -92 -76q-82 -57 -156 -61t-129 36q-86 63 -86 230q0 166 113 327q127 178 299 179q70 0 110 -37q23 -20 53 -76l23 86h156 l-144 -559q-6 -23 -6 -45q0 -86 88 -86q141 0 225 155q70 129 70 297q0 213 -162 388q-186 201 -473 200q-276 0 -442 -192q-172 -199 -172 -545q0 -262 170 -449q178 -195 452 -194q203 0 439 102l28 -45q-279 -119 -473 -119q-391 0 -612 246q-182 201 -182 457zM635 575 q0 -172 129 -172q70 0 141 117q84 139 96 352q8 144 -88 144q-90 0 -176 -111q-102 -131 -102 -330z" />
<glyph unicode="A" horiz-adv-x="1212" d="M244 911q144 138 337 138h3q35 0 127 -11.5t155 -11.5q31 0 62 2l88 6v-770q0 -78 10 -108q16 -47 64 -47q29 0 69 16l12 -57l-294 -93q-41 51 -46 144l-159 -96q-82 -47 -150 -48q-207 0 -332 175q-108 151 -108 346q0 260 162 415zM276 582q0 -184 74 -324 q86 -166 230 -166q94 0 172.5 58.5t78.5 132.5v571q-74 123 -239 123q-154 0 -242 -137q-74 -115 -74 -258z" />
<glyph unicode="B" horiz-adv-x="1212" d="M166 0v985q0 317 188 461q113 84 226 84q147 0 204 -43v-137l-63 -29q-98 133 -203 133q-51 0 -102 -70q-66 -88 -66 -241v-256l4 -6q135 168 344 168q426 0 426 -496q0 -238 -159.5 -408t-374.5 -170q-76 0 -185.5 17.5t-154.5 17.5t-84 -10zM350 291q0 -147 39 -195.5 t191 -48.5q141 0 233 111q109 131 109 389q0 207 -95 313q-82 92 -209 92q-78 0 -149 -53q-63 -47 -84 -104q-35 -96 -35 -299v-205z" />
<glyph unicode="C" horiz-adv-x="1136" d="M78 516q0 233 158 387q147 145 352 146q102 0 196 -29q0 94 13 135q18 66 84 115q125 94 202 106q21 3 38 3q33 0 48 -13l97 -82q16 -12 -4 -33l-33 -49q-12 -12 -39 -2l-74 31q-88 37 -121 37q-51 0 -65 -45q-10 -27 -10 -111v-266l-9 -8l-71 -45q-18 -12 -31 -2 l-104 120q-57 66 -162 66q-84 0 -162 -86q-100 -111 -100 -307q0 -193 86 -328q104 -164 307 -164q72 0 137 29q47 22 92 47l35 -64l-272 -129q-129 0 -185 11q-164 33 -266 147q-53 59 -92 162q-45 115 -45 221z" />
<glyph unicode="D" horiz-adv-x="1327" d="M78 500q0 258 168 409q152 139 375 140q147 0 231 -35v166q0 88 49 149q29 37 103 92q133 96 202 107q19 2 35 2q35 0 51 -12l97 -82q16 -12 -5 -33l-32 -49q-12 -12 -39 0l-74 30q-88 37 -121 37q-53 0 -69 -37q-12 -27 -13 -104v-1016q0 -78 11 -108q16 -47 63 -47 q29 0 70 16l12 -57l-295 -93q-41 51 -45 144l-160 -96q-82 -47 -133 -48q-233 0 -366 175q-115 150 -115 350zM272 582q0 -188 78 -324q94 -166 266 -166q84 0 160 58.5t76 132.5v571q-74 123 -264 123q-154 0 -242 -137q-74 -115 -74 -258z" />
<glyph unicode="E" horiz-adv-x="909" d="M121 434q61 80 172 107v4q-88 35 -123 61q-41 31 -61 82q-16 39 -17 82q0 111 108.5 195t280.5 84q160 -1 271 -64l71 -137q10 -14 0 -21l-71 -45q-23 -14 -37 2l-99 113q-70 80 -118 80q-55 0 -101 -21q-112 -53 -112 -193v-3q0 -20 2 -35q29 -137 159 -137q8 0 90 6 t95 6q31 0 41 -10t10 -51t-9 -51.5t-42 -10.5q-12 0 -94 11.5t-91 11.5q-86 0 -132 -58.5t-46 -142.5q0 -104 92 -166q78 -49 172 -49q131 0 287 123l43 -55l-252 -177h-82q-217 0 -348 97q-114 83 -114 198q0 92 55 164z" />
<glyph unicode="F" horiz-adv-x="794" d="M-49 -444q-16 12 4 32l33 50q12 12 39 2l73 -31q88 -37 121 -37q51 0 68 45q10 29 10 111v374h-256v95h256v778q0 123 25 186q31 80 120 148q127 96 203 106q21 3 38 3q33 0 48 -13l96 -82q16 -12 -4 -33l-32 -49q-12 -12 -39 -2l-74 31q-88 37 -121 37q-51 0 -65 -45 q-10 -27 -11 -111v-954h273v-95h-273v-274q0 -150 -147 -258q-131 -96 -203 -107q-20 -3 -36 -3q-34 0 -50 14z" />
<glyph unicode="G" horiz-adv-x="1251" d="M49 522q0 186 148 348q164 178 401 179q135 0 254 -31q0 94 12 135q18 66 84 115q125 94 203 106q21 3 38 3q33 0 48 -13l96 -82q16 -12 -4 -33l-33 -49q-12 -12 -39 -2l-73 31q-88 37 -121 37q-51 0 -66 -45q-10 -27 -10 -111v-383h-55q-10 98 -76 168q-80 82 -207 82 q-188 0 -295 -135q-92 -117 -92 -291q0 -197 98 -344q109 -160 281 -160q164 0 164 174v88q0 98 -35 117q-12 6 -145 14v54h510v-54q-133 -10 -139.5 -41t-6.5 -90v-262q-200 -67 -340 -67h-4q-246 0 -407 124q-188 145 -189 418z" />
<glyph unicode="H" horiz-adv-x="1363" d="M61 0v53q129 18 146.5 41t17.5 162v727q0 317 189 461q113 86 225 86q147 0 205 -43v-137l-64 -29q-98 133 -202 133q-51 0 -103 -70q-66 -90 -65 -243v-258l4 -15q147 180 409 181q174 0 244 -101q55 -84 55 -262v-430q0 -139 17.5 -161.5t146.5 -41.5v-53h-512v53 q129 18 146.5 41t17.5 162v377q0 137 -31 203q-51 106 -194 106q-303 0 -303 -436v-250q0 -139 17 -161.5t146 -41.5v-53h-512z" />
<glyph unicode="I" horiz-adv-x="606" d="M66 0v53q74 8 94 13q39 10 45 32q8 35 8 109v610q0 72 -8 111q-6 33 -139 43v53h477v-53q-133 -10 -139.5 -44t-6.5 -110v-610q0 -74 6.5 -106.5t139.5 -47.5v-53h-477z" />
<glyph unicode="J" horiz-adv-x="870" d="M-92 -268q0 102 76 184q88 96 233 96q53 0 121 -14v825q0 63 -43 78q-23 8 -119 8v54q213 8 342 86l4 -11v-1089q143 -66 248 -242q10 -16 10 -20t-28 -19q-12 -8 -27 -16q-4 -2 -12 12q-84 145 -191 199q-43 -379 -356 -379q-115 0 -186.5 70.5t-71.5 177.5zM31 -274 q0 -59 43 -102.5t108 -45.5h5q60 0 105 44q46 47 46 104v190q-43 16 -125 16q-182 0 -182 -206zM307 1305q0 49 36 83.5t83 34.5q49 0 85 -35.5t36 -82.5t-36 -84t-83 -37q-49 0 -85 35t-36 86z" />
<glyph unicode="K" horiz-adv-x="1136" d="M61 0v53q129 18 146.5 41t17.5 162v729q0 317 189 461q113 84 225 84q147 0 205 -43v-137l-64 -29q-98 133 -202 133q-51 0 -103 -70q-66 -88 -65 -241v-535q88 0 204 94q31 25 170 162q33 31 33 54q0 53 -143 53v53h358v-53q-55 -33 -174 -125l-264 -236 q145 -166 293 -331q176 -199 243 -252v-27h-256l-460 561h-4v-305q0 -139 17 -161.5t146 -41.5v-53h-512z" />
<glyph unicode="L" horiz-adv-x="643" d="M61 1391v53q191 6 349 61v-1499q0 -131 14 -207q20 -109 43 -155q33 -68 92 -74q31 0 131 53l70 37q27 14 37 4l39 -43q20 -23 8 -35l-82 -94q-20 -29 -80 -29q-86 0 -213 76q-244 145 -244 467v1294q0 90 -78 91h-86z" />
<glyph unicode="M" horiz-adv-x="1857" d="M61 0v53q129 18 146.5 41t17.5 162v567q0 63 -45 78q-23 8 -119 8v54q215 8 345 86l4 -5v-176h4q51 80 149.5 130.5t216.5 50.5q121 0 185 -54q41 -35 86 -127q147 180 372 181q162 0 232 -103q57 -86 57 -262v-534q0 -274 -102 -457q-66 -117 -140 -154 q-147 -76 -213 -76q-59 0 -79 29l-82 94q-12 12 8 35l39 43q10 10 37 -4l69 -37q100 -53 131 -53q68 0 108 138t40 384v539q0 150 -29 213q-45 98 -174 98q-137 0 -199 -94q-65 -102 -65 -347v-7v-238q0 -139 17.5 -161.5t146.5 -41.5v-53h-512v53q129 18 146.5 41t17.5 162 v375q0 150 -29 213q-45 98 -174 98q-135 0 -195 -88q-69 -104 -69 -360v-238q0 -139 17 -161.5t146 -41.5v-53h-512z" />
<glyph unicode="N" horiz-adv-x="1363" d="M61 0v53q129 18 146.5 41t17.5 162v567q0 63 -45 78q-23 8 -119 8v54q215 8 345 86l4 -5v-176q156 180 413 181q174 0 244 -101q55 -84 55 -262v-686q0 -35 -3 -118t-3 -124q0 -188 62 -188q31 0 131 53l69 37q27 14 37 4l39 -43q20 -23 8 -35l-82 -94q-20 -29 -80 -29 q-68 0 -215 77t-147 460v633q0 137 -31 203q-51 106 -194 106q-303 0 -303 -436v-250q0 -139 17 -161.5t146 -41.5v-53h-512z" />
<glyph unicode="O" horiz-adv-x="1212" d="M78 504q0 223 145 379q156 166 402 166q209 0 350 -131q160 -147 160 -398q0 -227 -150 -383q-155 -162 -397 -162q-211 0 -352 134q-158 145 -158 395zM281 512q0 -205 86 -330q92 -135 254 -135q135 0 219 113q92 123 92 350q0 190 -78 319q-90 147 -258 148 q-139 0 -223 -115q-92 -123 -92 -350z" />
<glyph unicode="P" horiz-adv-x="1251" d="M45 -459q129 18 146.5 41t17.5 162v1079q0 63 -45 78q-23 8 -119 8v54q215 8 344 86l4 -5v-163h4q131 168 340 168q188 0 299 -111q129 -133 129 -406q0 -205 -131 -366q-150 -190 -395 -191q-131 0 -246 45v-276q0 -98 8 -145q6 -29 60 -41q33 -6 151 -17v-53h-567v53z M393 141q100 -94 236 -94q334 0 334 485q0 219 -97 330q-80 92 -208 92h-5q-170 -2 -225 -155q-35 -98 -35 -299v-359z" />
<glyph unicode="Q" horiz-adv-x="1251" d="M78 502q0 256 168 409q154 137 377 138q39 0 110 -7q96 -6 117 -8q0 117 27 180q31 74 118 142q127 96 203 106q21 3 38 3q33 0 48 -13l96 -82q16 -12 -4 -33l-33 -49q-12 -12 -38 -2l-74 31q-88 37 -121 37q-51 0 -66 -45q-8 -27 -8 -111v-1454q0 -139 17.5 -161.5 t146.5 -41.5v-53h-569v53q121 10 153 17q53 12 60 41q8 47 8 145v369l-137 -76q-111 -61 -156 -62q-233 0 -366 175q-115 150 -115 352zM272 584q0 -188 78 -326q94 -166 266 -166q84 0 160 59.5t76 133.5v573q-72 119 -264 119q-156 0 -244 -137q-72 -113 -72 -256z" />
<glyph unicode="R" horiz-adv-x="794" d="M61 0v53q129 18 146.5 41t17.5 162v567q0 63 -43 78q-23 8 -119 8v54q213 8 343 86l4 -5v-184l106 111q76 78 113 78q41 0 76 -62l59 -104q8 -12 -16 -29l-60 -39q-12 -8 -31 2l-73 37q-20 10 -47 10q-88 0 -113 -100q-14 -51 -14 -186v-322q0 -98 8 -145q6 -29 57 -41 q29 -6 135 -17v-53h-549z" />
<glyph unicode="S" horiz-adv-x="833" d="M106 0v260h54v-6q0 -98 65 -154q61 -53 158 -53q84 0 139 55q49 51 49 121q0 86 -69 152q-4 4 -158 115.5t-180 140.5q-55 57 -55 149q0 123 100 199q94 70 227 70q136 0 242 -35v-205h-53q-6 61 -52 111q-53 57 -133 57q-66 0 -111.5 -36t-45.5 -95q0 -63 71 -127 q14 -10 185 -131q133 -94 180 -168q37 -57 37 -137q0 -150 -119 -234q-104 -74 -254 -74q-76 0 -143 13q0 -39 -2 -101.5t-2 -83.5q0 -118 50 -118h1q39 0 110 41l60 26q23 12 30 4l33 -32q20 -14 8 -27l-90 -84q-14 -16 -67 -19h-21q-92 0 -164 31q-80 35 -80 375z" />
<glyph unicode="T" horiz-adv-x="757" d="M57 881v94h164v215q55 59 129 115h56v-330h311v-53l-84 -41h-227v-760q0 -86 -3.5 -211t-3.5 -162q0 -178 62 -178q31 0 131 53l70 37q27 14 36 4l39 -43q20 -23 8 -35l-81 -94q-20 -29 -80 -29q-66 0 -213 76q-51 27 -92 152q-57 166 -58 432v758h-164z" />
<glyph unicode="U" horiz-adv-x="1251" d="M25 909v54q213 8 344 86l4 -5v-655q0 -139 35 -207q47 -90 170 -90q147 0 213.5 92t66.5 318v321q0 63 -45 78q-23 8 -119 8v54q215 8 344 86l4 -5v-780q0 -78 11 -108q16 -47 63 -47q29 0 70 16l12 -57l-293 -93q-47 53 -47 158l-180 -104q-92 -53 -191 -54 q-299 0 -299 400v448q0 63 -45 78q-23 8 -118 8z" />
<glyph unicode="V" horiz-adv-x="1136" d="M2 971v53h533v-53q-174 0 -175 -80q1 -18 11 -43l245 -610l258 571q18 41 19 72q0 90 -178 90v53h424v-53q-66 0 -111 -60q-25 -31 -67 -123l-371 -788h-68l-350 811q-70 160 -170 160z" />
<glyph unicode="W" horiz-adv-x="1630" d="M10 971v53h520v-53q-94 0 -127 -15q-47 -18 -47 -82q0 -37 15 -92l135 -518h4l301 760h92l283 -766h4l158 500q16 55 16 96q0 117 -160 117v53h414v-53q-66 0 -99.5 -41t-68.5 -142l-266 -788h-84l-295 772l-309 -772h-84l-234 795q-51 176 -168 176z" />
<glyph unicode="X" d="M27 0v53q63 0 112 37q45 31 109 115l241 315l-217 328q-82 123 -194 123v53h477v-53q-86 0 -86 -45q0 -31 37 -97l104 -184l162 203q47 57 47 86q0 37 -76 37v53h338v-53q-66 0 -109.5 -28t-117.5 -120l-197 -245l297 -431q66 -94 193 -94v-53h-477v53q67 0 67 46 q0 40 -49 114l-153 231l-158 -202q-70 -90 -70 -136q0 -53 92 -53v-53h-372z" />
<glyph unicode="Y" horiz-adv-x="1136" d="M2 971v53h533v-53q-174 0 -175 -80q1 -18 11 -43l243 -602l260 563q18 41 19 72q0 90 -178 90v53h424v-53q-66 0 -111 -60q-27 -33 -67 -123l-297 -645q51 -121 104 -241q51 -131 51 -213q0 -225 -244 -226q-88 0 -147 54.5t-70 156.5q-1 8 -1 17q0 123 157 387l-342 733 q-35 74 -57 102q-47 57 -113 58zM442 -305q0 -84 47 -125q37 -31 82 -31q104 0 107 123v8q0 71 -31 148q-10 23 -86 182q-119 -184 -119 -305z" />
<glyph unicode="Z" horiz-adv-x="985" d="M45 80l647 862h-301q-176 0 -180 -186h-53v268h714v-100l-620 -842h252q96 150 121 176q109 125 227 127h6q78 0 121 -55q37 -47 37 -109q0 -96 -66 -153q-74 -70 -219 -70h-180l-125 -213q-10 -16 -18 -10l-58 28q-8 4 2 21l105 176h-377zM600 82h166q137 0 137 102 q0 90 -76 90q-72 0 -131 -59q-35 -35 -96 -133z" />
<glyph unicode="[" horiz-adv-x="681" d="M240 -395v1900h442v-53h-156q-74 0 -98.5 -22.5t-24.5 -92.5v-1548q0 -80 27 -105.5t105 -25.5h147v-53h-442z" />
<glyph unicode="\" d="M276 1505h130l536 -1726h-131z" />
<glyph unicode="]" horiz-adv-x="681" d="M0 -342h147q80 0 106 25.5t26 105.5v1548q0 70 -24 92.5t-99 22.5h-156v53h442v-1900h-442v53z" />
<glyph unicode="^" d="M150 686l376 748h129l373 -748h-133l-307 606l-305 -606h-133z" />
<glyph unicode="_" horiz-adv-x="1024" d="M0 -154h1024v-102h-1024v102z" />
<glyph unicode="`" horiz-adv-x="718" d="M123 1450q0 78 67 78q70 0 123 -70l285 -287h-84l-297 185q-94 59 -94 94z" />
<glyph unicode="a" horiz-adv-x="1212" d="M244 911q144 138 337 138h3q35 0 127 -11.5t155 -11.5q31 0 62 2l88 6v-770q0 -78 10 -108q16 -47 64 -47q29 0 69 16l12 -57l-294 -93q-41 51 -46 144l-159 -96q-82 -47 -150 -48q-207 0 -332 175q-108 151 -108 346q0 260 162 415zM276 582q0 -184 74 -324 q86 -166 230 -166q94 0 172.5 58.5t78.5 132.5v571q-74 123 -239 123q-154 0 -242 -137q-74 -115 -74 -258z" />
<glyph unicode="b" horiz-adv-x="1212" d="M166 0v985q0 317 188 461q113 84 226 84q147 0 204 -43v-137l-63 -29q-98 133 -203 133q-51 0 -102 -70q-66 -88 -66 -241v-256l4 -6q135 168 344 168q426 0 426 -496q0 -238 -159.5 -408t-374.5 -170q-76 0 -185.5 17.5t-154.5 17.5t-84 -10zM350 291q0 -147 39 -195.5 t191 -48.5q141 0 233 111q109 131 109 389q0 207 -95 313q-82 92 -209 92q-78 0 -149 -53q-63 -47 -84 -104q-35 -96 -35 -299v-205z" />
<glyph unicode="c" horiz-adv-x="1136" d="M78 516q0 233 158 387q147 145 352 146q102 0 196 -29q0 94 13 135q18 66 84 115q125 94 202 106q21 3 38 3q33 0 48 -13l97 -82q16 -12 -4 -33l-33 -49q-12 -12 -39 -2l-74 31q-88 37 -121 37q-51 0 -65 -45q-10 -27 -10 -111v-266l-9 -8l-71 -45q-18 -12 -31 -2 l-104 120q-57 66 -162 66q-84 0 -162 -86q-100 -111 -100 -307q0 -193 86 -328q104 -164 307 -164q72 0 137 29q47 22 92 47l35 -64l-272 -129q-129 0 -185 11q-164 33 -266 147q-53 59 -92 162q-45 115 -45 221z" />
<glyph unicode="d" horiz-adv-x="1327" d="M78 500q0 258 168 409q152 139 375 140q147 0 231 -35v166q0 88 49 149q29 37 103 92q133 96 202 107q19 2 35 2q35 0 51 -12l97 -82q16 -12 -5 -33l-32 -49q-12 -12 -39 0l-74 30q-88 37 -121 37q-53 0 -69 -37q-12 -27 -13 -104v-1016q0 -78 11 -108q16 -47 63 -47 q29 0 70 16l12 -57l-295 -93q-41 51 -45 144l-160 -96q-82 -47 -133 -48q-233 0 -366 175q-115 150 -115 350zM272 582q0 -188 78 -324q94 -166 266 -166q84 0 160 58.5t76 132.5v571q-74 123 -264 123q-154 0 -242 -137q-74 -115 -74 -258z" />
<glyph unicode="e" horiz-adv-x="909" d="M121 434q61 80 172 107v4q-88 35 -123 61q-41 31 -61 82q-16 39 -17 82q0 111 108.5 195t280.5 84q160 -1 271 -64l71 -137q10 -14 0 -21l-71 -45q-23 -14 -37 2l-99 113q-70 80 -118 80q-55 0 -101 -21q-112 -53 -112 -193v-3q0 -20 2 -35q29 -137 159 -137q8 0 90 6 t95 6q31 0 41 -10t10 -51t-9 -51.5t-42 -10.5q-12 0 -94 11.5t-91 11.5q-86 0 -132 -58.5t-46 -142.5q0 -104 92 -166q78 -49 172 -49q131 0 287 123l43 -55l-252 -177h-82q-217 0 -348 97q-114 83 -114 198q0 92 55 164z" />
<glyph unicode="f" horiz-adv-x="794" d="M-49 -444q-16 12 4 32l33 50q12 12 39 2l73 -31q88 -37 121 -37q51 0 68 45q10 29 10 111v374h-256v95h256v778q0 123 25 186q31 80 120 148q127 96 203 106q21 3 38 3q33 0 48 -13l96 -82q16 -12 -4 -33l-32 -49q-12 -12 -39 -2l-74 31q-88 37 -121 37q-51 0 -65 -45 q-10 -27 -11 -111v-954h273v-95h-273v-274q0 -150 -147 -258q-131 -96 -203 -107q-20 -3 -36 -3q-34 0 -50 14z" />
<glyph unicode="g" horiz-adv-x="1251" d="M49 522q0 186 148 348q164 178 401 179q135 0 254 -31q0 94 12 135q18 66 84 115q125 94 203 106q21 3 38 3q33 0 48 -13l96 -82q16 -12 -4 -33l-33 -49q-12 -12 -39 -2l-73 31q-88 37 -121 37q-51 0 -66 -45q-10 -27 -10 -111v-383h-55q-10 98 -76 168q-80 82 -207 82 q-188 0 -295 -135q-92 -117 -92 -291q0 -197 98 -344q109 -160 281 -160q164 0 164 174v88q0 98 -35 117q-12 6 -145 14v54h510v-54q-133 -10 -139.5 -41t-6.5 -90v-262q-200 -67 -340 -67h-4q-246 0 -407 124q-188 145 -189 418z" />
<glyph unicode="h" horiz-adv-x="1363" d="M61 0v53q129 18 146.5 41t17.5 162v727q0 317 189 461q113 86 225 86q147 0 205 -43v-137l-64 -29q-98 133 -202 133q-51 0 -103 -70q-66 -90 -65 -243v-258l4 -15q147 180 409 181q174 0 244 -101q55 -84 55 -262v-430q0 -139 17.5 -161.5t146.5 -41.5v-53h-512v53 q129 18 146.5 41t17.5 162v377q0 137 -31 203q-51 106 -194 106q-303 0 -303 -436v-250q0 -139 17 -161.5t146 -41.5v-53h-512z" />
<glyph unicode="i" horiz-adv-x="606" d="M66 0v53q74 8 94 13q39 10 45 32q8 35 8 109v610q0 72 -8 111q-6 33 -139 43v53h477v-53q-133 -10 -139.5 -44t-6.5 -110v-610q0 -74 6.5 -106.5t139.5 -47.5v-53h-477z" />
<glyph unicode="j" horiz-adv-x="870" d="M-92 -268q0 102 76 184q88 96 233 96q53 0 121 -14v825q0 63 -43 78q-23 8 -119 8v54q213 8 342 86l4 -11v-1089q143 -66 248 -242q10 -16 10 -20t-28 -19q-12 -8 -27 -16q-4 -2 -12 12q-84 145 -191 199q-43 -379 -356 -379q-115 0 -186.5 70.5t-71.5 177.5zM31 -274 q0 -59 43 -102.5t108 -45.5h5q60 0 105 44q46 47 46 104v190q-43 16 -125 16q-182 0 -182 -206zM307 1305q0 49 36 83.5t83 34.5q49 0 85 -35.5t36 -82.5t-36 -84t-83 -37q-49 0 -85 35t-36 86z" />
<glyph unicode="k" horiz-adv-x="1136" d="M61 0v53q129 18 146.5 41t17.5 162v729q0 317 189 461q113 84 225 84q147 0 205 -43v-137l-64 -29q-98 133 -202 133q-51 0 -103 -70q-66 -88 -65 -241v-535q88 0 204 94q31 25 170 162q33 31 33 54q0 53 -143 53v53h358v-53q-55 -33 -174 -125l-264 -236 q145 -166 293 -331q176 -199 243 -252v-27h-256l-460 561h-4v-305q0 -139 17 -161.5t146 -41.5v-53h-512z" />
<glyph unicode="l" horiz-adv-x="643" d="M61 1391v53q191 6 349 61v-1499q0 -131 14 -207q20 -109 43 -155q33 -68 92 -74q31 0 131 53l70 37q27 14 37 4l39 -43q20 -23 8 -35l-82 -94q-20 -29 -80 -29q-86 0 -213 76q-244 145 -244 467v1294q0 90 -78 91h-86z" />
<glyph unicode="m" horiz-adv-x="1857" d="M61 0v53q129 18 146.5 41t17.5 162v567q0 63 -45 78q-23 8 -119 8v54q215 8 345 86l4 -5v-176h4q51 80 149.5 130.5t216.5 50.5q121 0 185 -54q41 -35 86 -127q147 180 372 181q162 0 232 -103q57 -86 57 -262v-534q0 -274 -102 -457q-66 -117 -140 -154 q-147 -76 -213 -76q-59 0 -79 29l-82 94q-12 12 8 35l39 43q10 10 37 -4l69 -37q100 -53 131 -53q68 0 108 138t40 384v539q0 150 -29 213q-45 98 -174 98q-137 0 -199 -94q-65 -102 -65 -347v-7v-238q0 -139 17.5 -161.5t146.5 -41.5v-53h-512v53q129 18 146.5 41t17.5 162 v375q0 150 -29 213q-45 98 -174 98q-135 0 -195 -88q-69 -104 -69 -360v-238q0 -139 17 -161.5t146 -41.5v-53h-512z" />
<glyph unicode="n" horiz-adv-x="1363" d="M61 0v53q129 18 146.5 41t17.5 162v567q0 63 -45 78q-23 8 -119 8v54q215 8 345 86l4 -5v-176q156 180 413 181q174 0 244 -101q55 -84 55 -262v-686q0 -35 -3 -118t-3 -124q0 -188 62 -188q31 0 131 53l69 37q27 14 37 4l39 -43q20 -23 8 -35l-82 -94q-20 -29 -80 -29 q-68 0 -215 77t-147 460v633q0 137 -31 203q-51 106 -194 106q-303 0 -303 -436v-250q0 -139 17 -161.5t146 -41.5v-53h-512z" />
<glyph unicode="o" horiz-adv-x="1212" d="M78 504q0 223 145 379q156 166 402 166q209 0 350 -131q160 -147 160 -398q0 -227 -150 -383q-155 -162 -397 -162q-211 0 -352 134q-158 145 -158 395zM281 512q0 -205 86 -330q92 -135 254 -135q135 0 219 113q92 123 92 350q0 190 -78 319q-90 147 -258 148 q-139 0 -223 -115q-92 -123 -92 -350z" />
<glyph unicode="p" horiz-adv-x="1251" d="M45 -459q129 18 146.5 41t17.5 162v1079q0 63 -45 78q-23 8 -119 8v54q215 8 344 86l4 -5v-163h4q131 168 340 168q188 0 299 -111q129 -133 129 -406q0 -205 -131 -366q-150 -190 -395 -191q-131 0 -246 45v-276q0 -100 8 -145q6 -29 60 -41q33 -6 151 -17v-53h-567v53z M393 141q100 -94 236 -94q334 0 334 485q0 219 -97 330q-80 92 -208 92h-5q-170 -2 -225 -155q-35 -98 -35 -299v-359z" />
<glyph unicode="q" horiz-adv-x="1251" d="M78 502q0 256 168 409q154 137 377 138q39 0 110 -7q96 -6 117 -8q0 117 27 180q31 74 118 142q127 96 203 106q21 3 38 3q33 0 48 -13l96 -82q16 -12 -4 -33l-33 -49q-12 -12 -38 -2l-74 31q-88 37 -121 37q-51 0 -66 -45q-8 -27 -8 -111v-1454q0 -139 17.5 -161.5 t146.5 -41.5v-53h-569v53q121 10 153 17q53 12 60 41q8 47 8 145v369l-137 -76q-111 -61 -156 -62q-233 0 -366 175q-115 150 -115 352zM272 584q0 -188 78 -326q94 -166 266 -166q84 0 160 59.5t76 133.5v573q-72 119 -264 119q-156 0 -244 -137q-72 -113 -72 -256z" />
<glyph unicode="r" horiz-adv-x="794" d="M61 0v53q129 18 146.5 41t17.5 162v567q0 63 -43 78q-23 8 -119 8v54q213 8 343 86l4 -5v-184l106 111q76 78 113 78q41 0 76 -62l59 -104q8 -12 -16 -29l-60 -39q-12 -8 -31 2l-73 37q-20 10 -47 10q-88 0 -113 -100q-14 -51 -14 -186v-322q0 -100 8 -145q6 -29 57 -41 q29 -6 135 -17v-53h-549z" />
<glyph unicode="s" horiz-adv-x="833" d="M106 0v260h54v-6q0 -98 65 -154q61 -53 158 -53q84 0 139 55q49 51 49 121q0 86 -69 152q-4 4 -158 115.5t-180 140.5q-55 57 -55 149q0 123 100 199q94 70 227 70q136 0 242 -35v-205h-53q-6 61 -52 111q-53 57 -133 57q-66 0 -111.5 -36t-45.5 -95q0 -63 71 -127 q14 -10 185 -131q133 -94 180 -168q37 -57 37 -137q0 -150 -119 -234q-104 -74 -254 -74q-76 0 -143 13q0 -39 -2 -101.5t-2 -83.5q0 -118 50 -118h1q39 0 110 41l60 26q23 12 30 4l33 -32q20 -14 8 -27l-90 -84q-14 -16 -67 -19h-21q-92 0 -164 31q-80 35 -80 375z" />
<glyph unicode="t" horiz-adv-x="757" d="M57 881v94h164v215q55 59 129 115h56v-330h311v-53l-84 -41h-227v-760q0 -86 -3.5 -211t-3.5 -162q0 -178 62 -178q31 0 131 53l70 37q27 14 36 4l39 -43q20 -23 8 -35l-81 -94q-20 -29 -80 -29q-66 0 -213 76q-51 27 -92 152q-57 166 -58 432v758h-164z" />
<glyph unicode="u" horiz-adv-x="1251" d="M25 909v54q213 8 344 86l4 -5v-655q0 -139 35 -207q47 -90 170 -90q147 0 213.5 92t66.5 318v321q0 63 -45 78q-23 8 -119 8v54q215 8 344 86l4 -5v-780q0 -78 11 -108q16 -47 63 -47q29 0 70 16l12 -57l-293 -93q-47 53 -47 158l-180 -104q-92 -53 -191 -54 q-299 0 -299 400v448q0 63 -45 78q-23 8 -118 8z" />
<glyph unicode="v" horiz-adv-x="1136" d="M2 971v53h533v-53q-174 0 -175 -80q1 -18 11 -43l245 -610l258 571q18 41 19 72q0 90 -178 90v53h424v-53q-66 0 -111 -60q-25 -31 -67 -123l-371 -788h-68l-350 811q-70 160 -170 160z" />
<glyph unicode="w" horiz-adv-x="1630" d="M10 971v53h520v-53q-94 0 -127 -15q-47 -18 -47 -82q0 -37 15 -92l135 -518h4l301 760h92l283 -766h4l158 500q16 55 16 96q0 117 -160 117v53h414v-53q-66 0 -99.5 -41t-68.5 -142l-266 -788h-84l-295 772l-309 -772h-84l-234 795q-51 176 -168 176z" />
<glyph unicode="x" d="M27 0v53q63 0 112 37q45 31 109 115l241 315l-217 328q-82 123 -194 123v53h477v-53q-86 0 -86 -45q0 -31 37 -97l104 -184l162 203q47 57 47 86q0 37 -76 37v53h338v-53q-66 0 -109.5 -28t-117.5 -120l-197 -245l297 -431q66 -94 193 -94v-53h-477v53q67 0 67 46 q0 40 -49 114l-153 231l-158 -202q-70 -90 -70 -136q0 -53 92 -53v-53h-372z" />
<glyph unicode="y" horiz-adv-x="1136" d="M2 971v53h533v-53q-174 0 -175 -80q1 -18 11 -43l243 -602l260 563q18 41 19 72q0 90 -178 90v53h424v-53q-66 0 -111 -60q-27 -33 -67 -123l-297 -645q51 -121 104 -241q51 -131 51 -213q0 -225 -244 -226q-88 0 -147 54.5t-70 156.5q-1 8 -1 17q0 123 157 387l-342 733 q-35 74 -57 102q-47 57 -113 58zM442 -305q0 -84 47 -125q37 -31 82 -31q104 0 107 123v8q0 71 -31 148q-10 23 -86 182q-119 -184 -119 -305z" />
<glyph unicode="z" horiz-adv-x="985" d="M45 80l647 862h-301q-176 0 -180 -186h-53v268h714v-100l-620 -842h252q96 150 121 176q109 125 227 127h6q78 0 121 -55q37 -47 37 -109q0 -96 -66 -153q-74 -70 -219 -70h-180l-125 -213q-10 -16 -18 -10l-58 28q-8 4 2 21l105 176h-377zM600 82h166q137 0 137 102 q0 90 -76 90q-72 0 -131 -59q-35 -35 -96 -133z" />
<glyph unicode="{" horiz-adv-x="681" d="M141 543v4q92 29 124 84t32 168v395q0 188 82 256q70 55 242 55v-4q-96 -25 -133 -89t-37 -185v-396q0 -129 -31 -186q-35 -72 -135 -98v-4q109 -31 143 -117q23 -57 23 -188v-371q0 -240 170 -273v-4q-182 -6 -250 60q-74 72 -74 274v361q0 115 -23 161q-33 68 -133 97z " />
<glyph unicode="|" horiz-adv-x="530" d="M197 -512v2048h135v-2048h-135z" />
<glyph unicode="}" horiz-adv-x="681" d="M61 -406q96 25 136 93q35 61 34 182v395q0 129 31 187q35 72 135 98v4q-109 31 -143 117q-23 57 -23 188v371q0 240 -170 272v4q182 6 252 -59q72 -72 72 -275v-360q0 -115 23 -162q33 -68 133 -96v-4q-92 -29 -124 -84t-32 -168v-395q0 -188 -82 -256q-70 -55 -242 -56 v4z" />
<glyph unicode="~" d="M100 457q63 96 115 139q72 57 166 57q80 0 228.5 -62.5t201.5 -62.5q94 0 178 129l86 -71q-61 -92 -106 -129q-68 -57 -154 -58q-72 0 -209 62.5t-229 62.5q-98 0 -193 -143z" />
<glyph unicode="&#xa1;" horiz-adv-x="606" d="M172 918q0 53 40 92t91 39q53 0 92 -39t39 -92q0 -51 -39 -91.5t-92 -40.5q-51 0 -91 40.5t-40 91.5zM193 -432q46 404 77 1053h66q31 -649 78 -1053q6 -59 -111 -60q-117 0 -110 60z" />
<glyph unicode="&#xa2;" d="M150 516q0 233 153 383q150 143 377 148l33 141l86 -17l-27 -129q127 -18 176 -47l72 -137q8 -16 -2 -20l-70 -45q-23 -12 -30 -2l-105 118q-24 26 -59 49l-185 -827q78 -39 172 -39q72 0 138 29q47 23 92 47l35 -64l-273 -129q-113 0 -194 17l-37 -166l-84 24l37 164 q-90 29 -174 119q-51 55 -91 165t-40 218zM342 584q0 -263 150 -398l176 801q-4 2 -19 2q-111 0 -198 -92q-109 -113 -109 -313z" />
<glyph unicode="&#xa3;" d="M25 0v66q63 10 116 65q70 72 90 195q10 115 45 389h-210v92h217l30 215q25 178 123 299q111 137 275 137q84 0 217 -47q35 -12 53 -68l41 -122q4 -10 -12 -15l-80 -18q-14 -4 -23 8q-49 61 -98 125q-63 70 -131 70q-80 0 -131 -107q-41 -86 -53 -211l-27 -266h307v-90 h-315l-10 -127q4 -102 -41 -228q-49 -143 -134 -215l5 -4q139 31 268 31q102 0 212.5 -57.5t143.5 -57.5q78 0 78 127q0 33 -6 74l-10 82q-4 33 6 37l57 27q20 14 35 -5l59 -112q14 -27 -6 -84q-14 -41 -67 -101q-45 -51 -76 -73q-80 -55 -215 -56q-47 0 -204 40t-265 40 q-137 0 -264 -55z" />
<glyph unicode="&#xa4;" d="M68 1139l90 92l121 -115q129 104 315 105q174 0 301 -105l115 115l92 -92l-109 -113q102 -123 103 -311q0 -184 -103 -307l113 -113l-88 -94l-117 114q-125 -111 -309 -110q-188 0 -318 110l-116 -114l-88 92l112 115q-102 131 -102 303q0 193 104 309zM221 711 q0 -154 108.5 -259.5t262.5 -105.5q152 0 257 108.5t105 260.5q0 147 -106.5 255.5t-253.5 108.5q-156 0 -264.5 -106.5t-108.5 -261.5z" />
<glyph unicode="&#xa5;" d="M12 1380v54h473v-54q-109 0 -108 -69q0 -39 37 -113l233 -477l240 475q25 51 24 88q0 96 -133 96v54h385v-54q-88 0 -151 -125l-285 -565h320v-82h-349v-164h349v-82h-349v-106q0 -98 9 -145q4 -29 55 -41q20 -6 112 -17v-53h-548v53q90 10 110 17q51 12 56 41 q8 47 8 145v106h-328v82h328v164h-328v82h287l-248 506q-90 184 -199 184z" />
<glyph unicode="&#xa6;" horiz-adv-x="530" d="M197 -358v716h135v-716h-135zM197 666v716h135v-716h-135z" />
<glyph unicode="&#xa7;" horiz-adv-x="1062" d="M74 616q0 131 94 201t246 57l4 5q-131 90 -182 149q-70 80 -70 172q0 123 113 195q100 63 253 63q61 0 161.5 -17.5t135.5 -33.5l80 -125q14 -35 -16 -51l-27 -14q-27 -14 -39 -15q-18 0 -32 15l-113 106q-82 78 -205 78q-51 0 -100 -33q-61 -41 -62 -106 q0 -100 109 -172l307 -201q256 -168 256 -346q0 -127 -96 -200t-248 -60l-4 -4q121 -86 166 -140q72 -82 72 -184q0 -141 -168 -221q-100 -37 -234 -37q-61 0 -160.5 17.5t-136.5 33.5l-82 125q-10 29 25 49l22 15q25 16 39 16q16 0 33 -16l111 -105q82 -78 206 -78 q76 0 138.5 38t64.5 106q2 109 -168 223q-162 100 -321 203q-172 135 -172 292zM193 680q0 -92 167 -213q94 -68 132 -88q88 -49 165 -49q197 0 197 155q0 70 -172 207t-301 137q-76 0 -132 -43t-56 -106z" />
<glyph unicode="&#xa8;" horiz-adv-x="872" d="M127 1286q0 39 31.5 72t70.5 33q43 0 74 -32t31 -73q0 -43 -31 -72.5t-74 -29.5q-41 0 -71.5 30.5t-30.5 71.5zM539 1286q0 39 31.5 72t70.5 33q43 0 73.5 -32t30.5 -73q0 -43 -30.5 -72.5t-73.5 -29.5q-41 0 -71.5 30.5t-30.5 71.5z" />
<glyph unicode="&#xa9;" horiz-adv-x="1593" d="M55 717q0 307 215 524t527 217q293 0 516 -217q225 -223 225 -524t-224 -521.5t-517 -220.5q-311 0 -526.5 217.5t-215.5 524.5zM162 717q0 -258 187.5 -446.5t447.5 -188.5q242 0 438.5 191.5t196.5 443.5t-197 446q-195 188 -438 189q-260 0 -447.5 -189.5 t-187.5 -445.5zM360 758q0 147 119 260q137 131 365 129q109 0 231 -39q47 -14 47 -45v-150h-53q-29 164 -233 164q-131 0 -207 -96q-70 -88 -72 -231q-2 -180 90 -277q80 -84 201 -84q185 -2 248 139l63 -4l-37 -143q0 -23 -55 -41q-104 -33 -236 -33q-197 0 -327 111 q-143 123 -144 340z" />
<glyph unicode="&#xaa;" horiz-adv-x="681" d="M37 977q0 80 55 127q45 37 174 82l146 51q0 168 -113 168q-53 0 -90 -35q-14 -12 -51 -67q-4 -6 -19 -5l-37 9q-10 8 -8 16l19 66q10 35 28 41q82 29 166 28q256 0 256 -192v-273q0 -92 49 -92q16 0 43 8l4 -43l-219 -51q-29 29 -28 96l-105 -63q-53 -33 -108 -33 q-68 0 -115 47t-47 115zM188 1006q0 -100 88 -101q136 0 136 195v90q-119 -45 -152 -64q-72 -47 -72 -120z" />
<glyph unicode="&#xab;" horiz-adv-x="1024" d="M121 487l334 310q59 55 65 55q12 0 12 -18q0 -66 -239 -347q47 -55 139 -178q109 -145 109 -166q0 -20 -15 -20q-8 0 -73 59zM483 487l334 310q59 55 66 55q12 0 12 -18q0 -66 -240 -347q47 -55 140 -178q109 -145 108 -166q0 -20 -14 -20q-8 0 -74 59z" />
<glyph unicode="&#xac;" d="M72 649v135h1032v-555h-135v420h-897z" />
<glyph unicode="&#xad;" horiz-adv-x="681" d="M86 403v168h510v-168h-510z" />
<glyph unicode="&#xae;" horiz-adv-x="1593" d="M55 717q0 307 215 524t527 217q293 0 516 -217q225 -223 225 -524t-224 -521.5t-517 -220.5q-311 0 -526.5 217.5t-215.5 524.5zM162 717q0 -258 187.5 -446.5t447.5 -188.5q242 0 438.5 191.5t196.5 443.5t-197 446q-195 188 -438 189q-260 0 -447.5 -189.5 t-187.5 -445.5zM438 348v29q53 6 62 8q29 8 30 23q4 27 5 84v505q0 59 -5 84q-2 19 -92 31v29h373q102 0 182 -43q94 -51 94 -142q0 -168 -159 -233l110 -168q98 -150 158 -186v-21h-156q-41 0 -92 86q-76 133 -149 264h-107v-206q0 -57 4 -84q2 -18 92 -31v-29h-350z M692 752h39q203 0 203 172q0 160 -164 159h-43q-35 0 -35 -75v-256z" />
<glyph unicode="&#xb0;" horiz-adv-x="757" d="M84 1210q0 119 88 207t207 88t206 -87t87 -208q0 -119 -86 -205.5t-207 -86.5t-208 87t-87 205zM186 1210q0 -76 59.5 -133t133.5 -57t132 58.5t58 131.5q0 76 -56 134.5t-134 58.5t-135.5 -57.5t-57.5 -135.5z" />
<glyph unicode="&#xb1;" d="M72 0v135h1032v-135h-1032zM72 662v135h448v446h135v-446h449v-135h-449v-447h-135v447h-448z" />
<glyph unicode="&#xb2;" horiz-adv-x="757" d="M47 584v69q82 84 184 178q264 242 265 383q0 68 -45 111t-115 43q-170 0 -193 -180h-45v139q113 131 285 131q121 0 198.5 -55t77.5 -156q0 -92 -98 -200q-43 -49 -170 -158q-143 -123 -233 -205h358q106 0 160 121h47l-82 -221h-594z" />
<glyph unicode="&#xb3;" horiz-adv-x="757" d="M51 711q-6 12 6 20l33 23q12 10 21 10q6 0 8 -4l67 -88q53 -70 152 -70q76 0 124 59.5t48 149.5q0 143 -121 182q-43 15 -168 15v57q244 6 244 197q0 72 -40 113.5t-95 41.5q-119 0 -172 -133l-45 21v96q96 57 229 57q281 0 287 -180q4 -88 -60.5 -146.5t-169.5 -78.5v-4 q115 -10 193 -70q80 -66 82 -164q2 -117 -111 -188q-100 -66 -239 -64q-61 0 -138 19q-68 16 -88 30z" />
<glyph unicode="&#xb4;" horiz-adv-x="720" d="M154 1171l284 287q53 70 123 70q68 0 68 -78q0 -35 -94 -94l-297 -185h-84z" />
<glyph unicode="&#xb6;" horiz-adv-x="1099" d="M41 1028q0 213 103.5 309.5t332.5 96.5h541v-54q-92 -12 -111 -16q-51 -12 -55 -41q-8 -47 -8 -149v-1260q0 -102 8 -150q4 -29 55 -40q18 -4 111 -17v-53h-293v1694h-127v-1694h-291v53q90 12 111 17q49 12 53 40q8 47 8 150v661q-221 -2 -334 123q-104 117 -104 330z M205 1024q0 -358 274 -358v682q-162 0 -215 -58q-59 -63 -59 -266z" />
<glyph unicode="&#xb8;" horiz-adv-x="681" d="M127 -408l29 64q70 -25 125 -25q119 0 118 86q0 72 -73 78q-39 4 -93 -8l-14 10l94 223h74l-61 -153q29 6 59 6q72 0 117 -35q53 -37 53 -106q0 -78 -84 -127q-76 -45 -180 -45q-74 0 -164 32z" />
<glyph unicode="&#xb9;" horiz-adv-x="757" d="M127 1339l350 119v-698q0 -66 6 -96q4 -20 43 -27q20 -4 115 -12v-41h-475v41q131 10 141 18q23 14 23 117v516q0 59 -49 59q-23 0 -76 -18l-62 -21z" />
<glyph unicode="&#xba;" horiz-adv-x="757" d="M39 1130q0 135 97 231.5t257 96.5q145 0 234.5 -81t89.5 -224q0 -156 -101.5 -247t-244.5 -91q-137 0 -230 80q-102 86 -102 235zM190 1137q0 -121 53.5 -195t147.5 -74q84 0 129 78t45 203q0 256 -190 256q-80 0 -129 -64q-55 -72 -56 -204z" />
<glyph unicode="&#xbb;" horiz-adv-x="1024" d="M121 831q0 20 16 21q18 0 72 -59l332 -306l-334 -309q-59 -55 -66 -55q-12 0 -12 18q0 35 102 172q78 104 140 174q-43 47 -142 179q-106 143 -108 165zM483 831q0 20 17 21q18 0 71 -59l332 -306l-334 -309q-59 -55 -65 -55q-12 0 -12 18q0 35 102 172q78 104 139 174 q-43 47 -141 179q-106 143 -109 165z" />
<glyph unicode="&#xbc;" horiz-adv-x="1744" d="M102 1339l351 119v-698q0 -66 6 -96q4 -20 43 -27q20 -4 114 -12v-41h-475v41q131 10 142 18q23 14 22 117v516q0 59 -49 59q-23 0 -76 -18l-61 -21zM395 0l926 1434h123l-924 -1434h-125zM967 293q127 199 436 567h106v-518h131v-92h-131v-80q0 -61 5.5 -90t115.5 -39 v-41h-422v41q143 10 148.5 39t5.5 90v80h-379zM1069 342h293v387q-137 -129 -293 -387z" />
<glyph unicode="&#xbd;" horiz-adv-x="1744" d="M63 1339l351 119v-698q0 -66 6 -96q4 -20 43 -27q20 -4 115 -12v-41h-476v41q131 10 142 18q23 14 22 117v516q0 59 -49 59q-23 0 -76 -18l-61 -21zM313 0l926 1434h123l-924 -1434h-125zM1006 0v70q82 84 184 178q264 242 264 383q0 68 -45 110.5t-115 42.5 q-170 0 -192 -180h-45v139q113 131 284 131q121 0 199 -55t78 -155q0 -92 -98 -201q-43 -49 -170 -158q-143 -123 -234 -205h359q106 0 159 121h47l-82 -221h-593z" />
<glyph unicode="&#xbe;" horiz-adv-x="1744" d="M82 717q-6 12 6 20l33 23q12 10 20 10q6 0 9 -4l67 -88q53 -70 152 -70q74 0 123 59.5t49 147.5q0 141 -121 182q-43 15 -168 15v55q244 6 244 195q0 72 -40 113.5t-96 41.5q-119 0 -172 -133l-45 21v96q96 57 230 57q281 0 286 -180q4 -86 -65 -148q-61 -55 -164 -75v-6 q115 -8 193.5 -69.5t81.5 -160.5q2 -117 -111 -186q-100 -66 -240 -64q-61 0 -137 19q-68 16 -88 30zM418 0l925 1434h123l-923 -1434h-125zM991 293q127 199 436 567h107v-518h131v-92h-131v-80q0 -61 5 -90t116 -39v-41h-422v41q143 10 148 39t5 90v80h-378zM1094 342h292 v387q-136 -129 -292 -387z" />
<glyph unicode="&#xbf;" horiz-adv-x="948" d="M100 -129q0 115 80 219q45 61 168 166q98 84 127 158q25 61 25 198h92q4 -141 -21 -223q-29 -98 -127 -235q-121 -168 -120 -295q0 -119 50 -200t136 -81q66 0 129 68l102 110q12 14 33 4l64 -41q14 -10 4 -28l-70 -131q-29 -16 -113 -34t-137 -18q-188 0 -305 98.5 t-117 264.5zM416 918q0 53 40 92t91 39q53 0 92 -39t39 -92q0 -51 -39 -91.5t-92 -40.5q-51 0 -91 40.5t-40 91.5z" />
<glyph unicode="&#xc0;" horiz-adv-x="1400" d="M82 500q0 256 162 411q145 139 340 138q35 0 127 -11.5t155 -11.5q31 0 62 2l88 6v-770q0 -78 10 -108q16 -47 64 -47q29 0 69 16l12 -57l-294 -93q-41 51 -46 144l-159 -96q-82 -47 -150 -48q-207 0 -332 175q-109 152 -108 350zM276 582q0 -184 74 -324 q86 -166 230 -166q94 0 172.5 58.5t78.5 132.5v571q-74 123 -239 123q-154 0 -242 -137q-74 -115 -74 -258zM463 1819q0 78 67 78q70 0 123 -70l285 -287h-84l-297 185q-94 59 -94 94z" />
<glyph unicode="&#xc1;" horiz-adv-x="1400" d="M82 500q0 256 162 411q145 139 340 138q35 0 127 -11.5t155 -11.5q31 0 62 2l88 6v-770q0 -78 10 -108q16 -47 64 -47q29 0 69 16l12 -57l-294 -93q-41 51 -46 144l-159 -96q-82 -47 -150 -48q-207 0 -332 175q-109 152 -108 350zM276 582q0 -184 74 -324 q86 -166 230 -166q94 0 172.5 58.5t78.5 132.5v571q-74 123 -239 123q-154 0 -242 -137q-74 -115 -74 -258zM535 1540l284 287q53 70 123 70q68 0 68 -78q0 -35 -94 -94l-297 -185h-84z" />
<glyph unicode="&#xc2;" horiz-adv-x="1400" d="M82 500q0 256 162 411q145 139 340 138q35 0 127 -11.5t155 -11.5q31 0 62 2l88 6v-770q0 -78 10 -108q16 -47 64 -47q29 0 69 16l12 -57l-294 -93q-41 51 -46 144l-159 -96q-82 -47 -150 -48q-207 0 -332 175q-109 152 -108 350zM276 582q0 -184 74 -324 q86 -166 230 -166q94 0 172.5 58.5t78.5 132.5v571q-74 123 -239 123q-154 0 -242 -137q-74 -115 -74 -258z" />
<glyph unicode="&#xc3;" horiz-adv-x="1400" d="M82 500q0 256 162 411q145 139 340 138q35 0 127 -11.5t155 -11.5q31 0 62 2l88 6v-770q0 -78 10 -108q16 -47 64 -47q29 0 69 16l12 -57l-294 -93q-41 51 -46 144l-159 -96q-82 -47 -150 -48q-207 0 -332 175q-109 152 -108 350zM276 582q0 -184 74 -324 q86 -166 230 -166q94 0 172.5 58.5t78.5 132.5v571q-74 123 -239 123q-154 0 -242 -137q-74 -115 -74 -258z" />
<glyph unicode="&#xc4;" horiz-adv-x="1400" d="M82 500q0 256 162 411q145 139 340 138q35 0 127 -11.5t155 -11.5q31 0 62 2l88 6v-770q0 -78 10 -108q16 -47 64 -47q29 0 69 16l12 -57l-294 -93q-41 51 -46 144l-159 -96q-82 -47 -150 -48q-207 0 -332 175q-109 152 -108 350zM276 582q0 -184 74 -324 q86 -166 230 -166q94 0 172.5 58.5t78.5 132.5v571q-74 123 -239 123q-154 0 -242 -137q-74 -115 -74 -258zM412 1655q0 39 31.5 72t70.5 33q43 0 74 -32t31 -73q0 -43 -31 -72.5t-74 -29.5q-41 0 -71.5 30.5t-30.5 71.5zM824 1655q0 39 31.5 72t70.5 33q43 0 73.5 -32 t30.5 -73q0 -43 -30.5 -72.5t-73.5 -29.5q-41 0 -71.5 30.5t-30.5 71.5z" />
<glyph unicode="&#xc5;" horiz-adv-x="1400" d="M82 500q0 256 162 411q145 139 340 138q35 0 127 -11.5t155 -11.5q31 0 62 2l88 6v-770q0 -78 10 -108q16 -47 64 -47q29 0 69 16l12 -57l-294 -93q-41 51 -46 144l-159 -96q-82 -47 -150 -48q-207 0 -332 175q-109 152 -108 350zM276 582q0 -184 74 -324 q86 -166 230 -166q94 0 172.5 58.5t78.5 132.5v571q-74 123 -239 123q-154 0 -242 -137q-74 -115 -74 -258z" />
<glyph unicode="&#xc6;" horiz-adv-x="1859" d="M27 0v53q88 0 147 103l602 1028q43 72 43 116q0 72 -104 80v54h962v-332h-51q-20 131 -57 190q-49 76 -152 76h-278v-590h172q182 0 190 180h51v-438h-51q-10 193 -190 193h-172v-459q0 -123 63 -160q49 -29 201 -28q143 0 209 30q59 27 94 97l74 176h53l-61 -369h-1006 v53q90 10 111 17q51 12 55 41q8 47 8 145v217h-491l-152 -272q-14 -25 -14 -49q0 -41 32.5 -70t83.5 -29v-53h-372zM494 551h446v760h-4z" />
<glyph unicode="&#xc7;" horiz-adv-x="1517" d="M98 725q0 270 203 485q236 248 617 248q178 0 393 -69q80 -27 80 -80v-265h-54q-6 143 -98 234q-115 109 -338 108q-276 0 -428 -184q-139 -172 -141 -461q-2 -319 143 -499q156 -195 459 -195q336 1 465 318h53l-61 -256q0 -31 -27 -46q-10 -8 -68 -26 q-184 -61 -399 -62q-53 0 -106 7l-48 -115q29 6 60 6q72 0 117 -35q53 -37 53 -106q0 -78 -84 -127q-76 -45 -180 -45q-74 0 -164 32l28 64q70 -25 125 -25q119 0 119 86q0 72 -74 78q-39 4 -92 -8l-14 10l82 195q-279 39 -438 209q-182 193 -183 524z" />
<glyph unicode="&#xc8;" horiz-adv-x="931" d="M66 272q0 90 55 162q61 80 172 107v4q-88 35 -123 61q-41 31 -61 82q-16 39 -17 82q0 111 108.5 195t280.5 84q160 -1 271 -64l71 -137q10 -14 0 -21l-71 -45q-23 -14 -37 2l-99 113q-70 80 -118 80q-55 0 -101 -21q-113 -53 -112 -196q0 -20 2 -35q29 -137 159 -137 q8 0 90 6t95 6q31 0 41 -10t10 -51t-9 -51.5t-42 -10.5q-12 0 -94 11.5t-91 11.5q-86 0 -132 -58.5t-46 -142.5q0 -104 92 -166q78 -49 172 -49q131 0 287 123l43 -55l-252 -177h-82q-217 0 -348 97q-115 84 -114 200zM332 1819q0 78 67 78q70 0 123 -70l285 -287h-84 l-297 185q-94 59 -94 94z" />
<glyph unicode="&#xc9;" horiz-adv-x="933" d="M66 272q0 90 55 162q61 80 172 107v4q-88 35 -123 61q-41 31 -61 82q-16 39 -17 82q0 111 108.5 195t280.5 84q160 -1 271 -64l71 -137q10 -14 0 -21l-71 -45q-23 -14 -37 2l-99 113q-70 80 -118 80q-55 0 -101 -21q-113 -53 -112 -196q0 -20 2 -35q29 -137 159 -137 q8 0 90 6t95 6q31 0 41 -10t10 -51t-9 -51.5t-42 -10.5q-12 0 -94 11.5t-91 11.5q-86 0 -132 -58.5t-46 -142.5q0 -104 92 -166q78 -49 172 -49q131 0 287 123l43 -55l-252 -177h-82q-217 0 -348 97q-115 84 -114 200zM404 1540l284 287q53 70 123 70q68 0 68 -78 q0 -35 -94 -94l-297 -185h-84z" />
<glyph unicode="&#xca;" horiz-adv-x="937" d="M66 272q0 90 55 162q61 80 172 107v4q-88 35 -123 61q-41 31 -61 82q-16 39 -17 82q0 111 108.5 195t280.5 84q160 -1 271 -64l71 -137q10 -14 0 -21l-71 -45q-23 -14 -37 2l-99 113q-70 80 -118 80q-55 0 -101 -21q-113 -53 -112 -196q0 -20 2 -35q29 -137 159 -137 q8 0 90 6t95 6q31 0 41 -10t10 -51t-9 -51.5t-42 -10.5q-12 0 -94 11.5t-91 11.5q-86 0 -132 -58.5t-46 -142.5q0 -104 92 -166q78 -49 172 -49q131 0 287 123l43 -55l-252 -177h-82q-217 0 -348 97q-115 84 -114 200z" />
<glyph unicode="&#xcb;" horiz-adv-x="1177" d="M66 272q0 90 55 162q61 80 172 107v4q-88 35 -123 61q-41 31 -61 82q-16 39 -17 82q0 111 108.5 195t280.5 84q160 -1 271 -64l71 -137q10 -14 0 -21l-71 -45q-23 -14 -37 2l-99 113q-70 80 -118 80q-55 0 -101 -21q-113 -53 -112 -196q0 -20 2 -35q29 -137 159 -137 q8 0 90 6t95 6q31 0 41 -10t10 -51t-9 -51.5t-42 -10.5q-12 0 -94 11.5t-91 11.5q-86 0 -132 -58.5t-46 -142.5q0 -104 92 -166q78 -49 172 -49q131 0 287 123l43 -55l-252 -177h-82q-217 0 -348 97q-115 84 -114 200zM281 1655q0 39 31.5 72t70.5 33q43 0 74 -32t31 -73 q0 -43 -31 -72.5t-74 -29.5q-41 0 -71.5 30.5t-30.5 71.5zM693 1655q0 39 31.5 72t70.5 33q43 0 73.5 -32t30.5 -73q0 -43 -30.5 -72.5t-73.5 -29.5q-41 0 -71.5 30.5t-30.5 71.5z" />
<glyph unicode="&#xcc;" horiz-adv-x="714" d="M66 0v53q74 8 94 13q39 10 45 32q8 35 8 109v610q0 72 -8 111q-6 33 -139 43v53h477v-53q-133 -10 -139.5 -44t-6.5 -110v-610q0 -74 6.5 -106.5t139.5 -47.5v-53h-477zM100 1819q0 78 67 78q70 0 123 -70l285 -287h-84l-297 185q-94 59 -94 94z" />
<glyph unicode="&#xcd;" horiz-adv-x="714" d="M66 0v53q74 8 94 13q39 10 45 32q8 35 8 109v610q0 72 -8 111q-6 33 -139 43v53h477v-53q-133 -10 -139.5 -44t-6.5 -110v-610q0 -74 6.5 -106.5t139.5 -47.5v-53h-477zM172 1540l284 287q53 70 123 70q68 0 68 -78q0 -35 -94 -94l-297 -185h-84z" />
<glyph unicode="&#xce;" horiz-adv-x="714" d="M66 0v53q74 8 94 13q39 10 45 32q8 35 8 109v610q0 72 -8 111q-6 33 -139 43v53h477v-53q-133 -10 -139.5 -44t-6.5 -110v-610q0 -74 6.5 -106.5t139.5 -47.5v-53h-477z" />
<glyph unicode="&#xcf;" horiz-adv-x="714" d="M49 1655q0 39 31.5 72t70.5 33q43 0 74 -32t31 -73q0 -43 -31 -72.5t-74 -29.5q-41 0 -71.5 30.5t-30.5 71.5zM66 0v53q74 8 94 13q39 10 45 32q8 35 8 109v610q0 72 -8 111q-6 33 -139 43v53h477v-53q-133 -10 -139.5 -44t-6.5 -110v-610q0 -74 6.5 -106.5t139.5 -47.5 v-53h-477zM461 1655q0 39 31.5 72t70.5 33q43 0 73.5 -32t30.5 -73q0 -43 -30.5 -72.5t-73.5 -29.5q-41 0 -71.5 30.5t-30.5 71.5z" />
<glyph unicode="&#xd0;" horiz-adv-x="1593" d="M0 719v96h242v363q0 143 -18.5 164.5t-157.5 37.5v54h679q369 0 559.5 -177.5t190.5 -498.5q0 -319 -213 -533q-227 -225 -594 -225h-622v53q139 16 157.5 38t18.5 165v463h-242zM440 295q0 -156 49 -197q41 -33 197 -32q580 0 580 692q0 293 -157 451.5t-450 158.5h-219 v-553h379v-96h-379v-424z" />
<glyph unicode="&#xd1;" horiz-adv-x="1630" d="M61 0v53q129 18 146.5 41t17.5 162v567q0 63 -45 78q-23 8 -119 8v54q215 8 345 86l4 -5v-176q156 180 413 181q174 0 244 -101q55 -84 55 -262v-686q0 -35 -3 -118t-3 -124q0 -188 62 -188q31 0 131 53l69 37q27 14 37 4l39 -43q20 -23 8 -35l-82 -94q-20 -29 -80 -29 q-68 0 -215 77t-147 460v633q0 137 -31 203q-51 106 -194 106q-303 0 -303 -436v-250q0 -139 17 -161.5t146 -41.5v-53h-512z" />
<glyph unicode="&#xd2;" horiz-adv-x="1669" d="M78 504q0 223 145 379q156 166 402 166q209 0 350 -131q160 -147 160 -398q0 -227 -150 -383q-155 -162 -397 -162q-211 0 -352 134q-158 145 -158 395zM281 512q0 -205 86 -330q92 -135 254 -135q135 0 219 113q92 123 92 350q0 190 -78 319q-90 147 -258 148 q-139 0 -223 -115q-92 -123 -92 -350zM578 1819q0 78 67 78q70 0 123 -70l285 -287h-84l-297 185q-94 59 -94 94z" />
<glyph unicode="&#xd3;" horiz-adv-x="1669" d="M78 504q0 223 145 379q156 166 402 166q209 0 350 -131q160 -147 160 -398q0 -227 -150 -383q-155 -162 -397 -162q-211 0 -352 134q-158 145 -158 395zM281 512q0 -205 86 -330q92 -135 254 -135q135 0 219 113q92 123 92 350q0 190 -78 319q-90 147 -258 148 q-139 0 -223 -115q-92 -123 -92 -350zM650 1540l284 287q53 70 123 70q68 0 68 -78q0 -35 -94 -94l-297 -185h-84z" />
<glyph unicode="&#xd4;" horiz-adv-x="1669" d="M78 504q0 223 145 379q156 166 402 166q209 0 350 -131q160 -147 160 -398q0 -227 -150 -383q-155 -162 -397 -162q-211 0 -352 134q-158 145 -158 395zM281 512q0 -205 86 -330q92 -135 254 -135q135 0 219 113q92 123 92 350q0 190 -78 319q-90 147 -258 148 q-139 0 -223 -115q-92 -123 -92 -350z" />
<glyph unicode="&#xd5;" horiz-adv-x="1669" d="M78 504q0 223 145 379q156 166 402 166q209 0 350 -131q160 -147 160 -398q0 -227 -150 -383q-155 -162 -397 -162q-211 0 -352 134q-158 145 -158 395zM281 512q0 -205 86 -330q92 -135 254 -135q135 0 219 113q92 123 92 350q0 190 -78 319q-90 147 -258 148 q-139 0 -223 -115q-92 -123 -92 -350z" />
<glyph unicode="&#xd6;" horiz-adv-x="1669" d="M78 504q0 223 145 379q156 166 402 166q209 0 350 -131q160 -147 160 -398q0 -227 -150 -383q-155 -162 -397 -162q-211 0 -352 134q-158 145 -158 395zM281 512q0 -205 86 -330q92 -135 254 -135q135 0 219 113q92 123 92 350q0 190 -78 319q-90 147 -258 148 q-139 0 -223 -115q-92 -123 -92 -350zM526 1655q0 39 31.5 72t70.5 33q43 0 74 -32t31 -73q0 -43 -31 -72.5t-74 -29.5q-41 0 -71.5 30.5t-30.5 71.5zM938 1655q0 39 31.5 72t70.5 33q43 0 73.5 -32t30.5 -73q0 -43 -30.5 -72.5t-73.5 -29.5q-41 0 -71.5 30.5t-30.5 71.5z " />
<glyph unicode="&#xd7;" d="M145 172l344 348l-344 344l99 97l340 -347l348 347l98 -97l-348 -344l348 -348l-98 -96l-348 348l-340 -348z" />
<glyph unicode="&#xd8;" horiz-adv-x="1669" d="M98 690q0 330 223.5 549t546.5 219q240 0 418 -141l154 176l71 -49l-159 -182q219 -215 219 -502q0 -328 -220.5 -556.5t-555.5 -228.5q-246 0 -437 154l-176 -207l-65 60l180 206q-199 205 -199 502zM332 797q0 -272 102 -465l756 870q-135 184 -367 184 q-242 0 -377 -190q-115 -164 -114 -399zM479 254q141 -207 371 -207q258 0 387 223q100 174 100 428q0 260 -100 428z" />
<glyph unicode="&#xd9;" horiz-adv-x="1595" d="M25 909v54q213 8 344 86l4 -5v-655q0 -139 35 -207q47 -90 170 -90q147 0 213.5 92t66.5 318v321q0 63 -45 78q-23 8 -119 8v54q215 8 344 86l4 -5v-780q0 -78 11 -108q16 -47 63 -47q29 0 70 16l12 -57l-293 -93q-47 53 -47 158l-180 -104q-92 -53 -191 -54 q-299 0 -299 400v448q0 63 -45 78q-23 8 -118 8zM541 1819q0 78 67 78q70 0 123 -70l285 -287h-84l-297 185q-94 59 -94 94z" />
<glyph unicode="&#xda;" horiz-adv-x="1595" d="M25 909v54q213 8 344 86l4 -5v-655q0 -139 35 -207q47 -90 170 -90q147 0 213.5 92t66.5 318v321q0 63 -45 78q-23 8 -119 8v54q215 8 344 86l4 -5v-780q0 -78 11 -108q16 -47 63 -47q29 0 70 16l12 -57l-293 -93q-47 53 -47 158l-180 -104q-92 -53 -191 -54 q-299 0 -299 400v448q0 63 -45 78q-23 8 -118 8zM613 1540l284 287q53 70 123 70q68 0 68 -78q0 -35 -94 -94l-297 -185h-84z" />
<glyph unicode="&#xdb;" horiz-adv-x="1595" d="M25 909v54q213 8 344 86l4 -5v-655q0 -139 35 -207q47 -90 170 -90q147 0 213.5 92t66.5 318v321q0 63 -45 78q-23 8 -119 8v54q215 8 344 86l4 -5v-780q0 -78 11 -108q16 -47 63 -47q29 0 70 16l12 -57l-293 -93q-47 53 -47 158l-180 -104q-92 -53 -191 -54 q-299 0 -299 400v448q0 63 -45 78q-23 8 -118 8z" />
<glyph unicode="&#xdc;" horiz-adv-x="1595" d="M25 909v54q213 8 344 86l4 -5v-655q0 -139 35 -207q47 -90 170 -90q147 0 213.5 92t66.5 318v321q0 63 -45 78q-23 8 -119 8v54q215 8 344 86l4 -5v-780q0 -78 11 -108q16 -47 63 -47q29 0 70 16l12 -57l-293 -93q-47 53 -47 158l-180 -104q-92 -53 -191 -54 q-299 0 -299 400v448q0 63 -45 78q-23 8 -118 8zM489 1655q0 39 31.5 72t70.5 33q43 0 74 -32t31 -73q0 -43 -31 -72.5t-74 -29.5q-41 0 -71.5 30.5t-30.5 71.5zM901 1655q0 39 31.5 72t70.5 33q43 0 73.5 -32t30.5 -73q0 -43 -30.5 -72.5t-73.5 -29.5q-41 0 -71.5 30.5 t-30.5 71.5z" />
<glyph unicode="&#xdd;" horiz-adv-x="1325" d="M2 971v53h533v-53q-174 0 -175 -80q1 -18 11 -43l243 -602l260 563q18 41 19 72q0 90 -178 90v53h424v-53q-66 0 -111 -60q-27 -33 -67 -123l-297 -645q51 -121 104 -241q51 -131 51 -213q0 -225 -244 -226q-88 0 -147 54.5t-70 156.5q-12 121 156 404l-342 733 q-35 74 -57 102q-47 57 -113 58zM442 -305q0 -84 47 -125q37 -31 82 -31q104 0 107 123q2 74 -31 156q-10 23 -86 182q-119 -184 -119 -305zM457 1540l284 287q53 70 123 70q68 0 68 -78q0 -35 -94 -94l-297 -185h-84z" />
<glyph unicode="&#xde;" horiz-adv-x="1140" d="M82 0v53q139 16 157.5 38t18.5 165v922q0 143 -18.5 164.5t-157.5 37.5v54h551v-54q-139 -16 -157.5 -37.5t-18.5 -164.5v-52h164q453 0 452 -335q0 -156 -115 -263q-123 -113 -323 -112h-178v-160q0 -143 18.5 -164.5t157.5 -38.5v-53h-551zM457 481h155q256 0 256 299 q0 150 -71.5 215.5t-223.5 65.5h-116v-580z" />
<glyph unicode="&#xdf;" horiz-adv-x="1282" d="M61 0v53q129 18 146.5 41t17.5 162v610h-119v58l119 41v116q0 176 105 293q119 131 342 131q356 0 356 -256q0 -80 -121 -219t-121 -205q0 -61 54 -110q25 -23 164 -121q205 -143 204 -342q0 -121 -98 -199t-236 -78q-150 0 -247 62l-47 151q-4 16 6 29l32 31 q18 25 27 10l70 -117q25 -29 49 -55q43 -39 104 -39q82 0 129 55q43 47 43 117q0 78 -71 150q-33 35 -160 125q-119 86 -160 145q-27 41 -26 94q0 80 65 162q59 72 119 141q66 90 65 193q0 205 -204 205q-258 0 -258 -328v-850q0 -139 17 -161.5t146 -41.5v-53h-512z" />
<glyph unicode="&#xe0;" horiz-adv-x="1042" d="M82 500q0 256 162 411q145 139 340 138q35 0 127 -11.5t155 -11.5q31 0 62 2l88 6v-770q0 -78 10 -108q16 -47 64 -47q29 0 69 16l12 -57l-294 -93q-41 51 -46 144l-159 -96q-82 -47 -150 -48q-207 0 -332 175q-109 152 -108 350zM264 1450q0 78 67 78q70 0 123 -70 l285 -287h-84l-297 185q-94 59 -94 94zM276 582q0 -184 74 -324q86 -166 230 -166q94 0 172.5 58.5t78.5 132.5v571q-74 123 -239 123q-154 0 -242 -137q-74 -115 -74 -258z" />
<glyph unicode="&#xe1;" horiz-adv-x="1042" d="M82 500q0 256 162 411q145 139 340 138q35 0 127 -11.5t155 -11.5q31 0 62 2l88 6v-770q0 -78 10 -108q16 -47 64 -47q29 0 69 16l12 -57l-294 -93q-41 51 -46 144l-159 -96q-82 -47 -150 -48q-207 0 -332 175q-109 152 -108 350zM276 582q0 -184 74 -324 q86 -166 230 -166q94 0 172.5 58.5t78.5 132.5v571q-74 123 -239 123q-154 0 -242 -137q-74 -115 -74 -258zM295 1171l284 287q53 70 123 70q68 0 68 -78q0 -35 -94 -94l-297 -185h-84z" />
<glyph unicode="&#xe2;" horiz-adv-x="1042" d="M82 500q0 256 162 411q145 139 340 138q35 0 127 -11.5t155 -11.5q31 0 62 2l88 6v-770q0 -78 10 -108q16 -47 64 -47q29 0 69 16l12 -57l-294 -93q-41 51 -46 144l-159 -96q-82 -47 -150 -48q-207 0 -332 175q-109 152 -108 350zM276 582q0 -184 74 -324 q86 -166 230 -166q94 0 172.5 58.5t78.5 132.5v571q-74 123 -239 123q-154 0 -242 -137q-74 -115 -74 -258z" />
<glyph unicode="&#xe3;" horiz-adv-x="1042" d="M82 500q0 256 162 411q145 139 340 138q35 0 127 -11.5t155 -11.5q31 0 62 2l88 6v-770q0 -78 10 -108q16 -47 64 -47q29 0 69 16l12 -57l-294 -93q-41 51 -46 144l-159 -96q-82 -47 -150 -48q-207 0 -332 175q-109 152 -108 350zM276 582q0 -184 74 -324 q86 -166 230 -166q94 0 172.5 58.5t78.5 132.5v571q-74 123 -239 123q-154 0 -242 -137q-74 -115 -74 -258z" />
<glyph unicode="&#xe4;" horiz-adv-x="1042" d="M82 500q0 256 162 411q145 139 340 138q35 0 127 -11.5t155 -11.5q31 0 62 2l88 6v-770q0 -78 10 -108q16 -47 64 -47q29 0 69 16l12 -57l-294 -93q-41 51 -46 144l-159 -96q-82 -47 -150 -48q-207 0 -332 175q-109 152 -108 350zM193 1286q0 39 31.5 72t70.5 33 q43 0 74 -32t31 -73q0 -43 -31 -72.5t-74 -29.5q-41 0 -71.5 30.5t-30.5 71.5zM276 582q0 -184 74 -324q86 -166 230 -166q94 0 172.5 58.5t78.5 132.5v571q-74 123 -239 123q-154 0 -242 -137q-74 -115 -74 -258zM605 1286q0 39 31.5 72t70.5 33q43 0 73.5 -32t30.5 -73 q0 -43 -30.5 -72.5t-73.5 -29.5q-41 0 -71.5 30.5t-30.5 71.5z" />
<glyph unicode="&#xe5;" horiz-adv-x="1042" d="M82 500q0 256 162 411q145 139 340 138q35 0 127 -11.5t155 -11.5q31 0 62 2l88 6v-770q0 -78 10 -108q16 -47 64 -47q29 0 69 16l12 -57l-294 -93q-41 51 -46 144l-159 -96q-82 -47 -150 -48q-207 0 -332 175q-109 152 -108 350zM276 582q0 -184 74 -324 q86 -166 230 -166q94 0 172.5 58.5t78.5 132.5v571q-74 123 -239 123q-154 0 -242 -137q-74 -115 -74 -258z" />
<glyph unicode="&#xe6;" horiz-adv-x="1593" d="M82 244q0 137 88 213q68 59 266 137l221 86q0 297 -174 297q-80 0 -137 -66q-2 -2 -80 -120q-8 -12 -26 -9l-56 15q-20 4 -16 26l31 109q14 55 45 65q135 51 254 52q227 0 297 -142q127 141 340 142q174 0 277.5 -116t103.5 -310v-58h-660q0 -477 365 -477q74 0 139 29 q45 23 90 45l35 -64l-271 -123h-86q-92 0 -188 37q-141 53 -219 174l-223 -155q-80 -55 -168 -56q-102 0 -175 79t-73 190zM266 276q0 -74 44 -124t114 -50q96 0 158 70q75 86 75 270v160q-219 -82 -262 -110q-129 -80 -129 -216zM856 637h379q102 0 102 119 q0 96 -63.5 158.5t-151.5 62.5q-266 0 -266 -340z" />
<glyph unicode="&#xe7;" horiz-adv-x="993" d="M78 516q0 238 162 387q156 145 389 146q160 0 252 -54l71 -137q10 -14 0 -20l-71 -45q-18 -12 -31 -2l-105 120q-57 66 -161 66q-113 0 -197 -86q-106 -106 -106 -307q0 -193 86 -328q104 -164 307 -164q72 0 137 29q47 22 92 47l35 -64l-272 -129q-100 0 -142 7 l-45 -115q29 6 60 6q72 0 116 -35q53 -37 54 -106q0 -78 -84 -127q-76 -45 -181 -45q-74 0 -163 32l28 64q70 -25 125 -25q119 0 119 86q0 72 -74 78q-39 4 -92 -8l-14 10l82 197q-139 29 -240 139q-53 59 -92 162q-45 115 -45 221z" />
<glyph unicode="&#xe8;" horiz-adv-x="1013" d="M66 272q0 90 55 162q61 80 172 107v4q-88 35 -123 61q-41 31 -61 82q-16 39 -17 82q0 111 108.5 195t280.5 84q160 -1 271 -64l71 -137q10 -14 0 -21l-71 -45q-23 -14 -37 2l-99 113q-70 80 -118 80q-55 0 -101 -21q-113 -53 -112 -196q0 -20 2 -35q29 -137 159 -137 q8 0 90 6t95 6q31 0 41 -10t10 -51t-9 -51.5t-42 -10.5q-12 0 -94 11.5t-91 11.5q-86 0 -132 -58.5t-46 -142.5q0 -104 92 -166q78 -49 172 -49q131 0 287 123l43 -55l-252 -177h-82q-217 0 -348 97q-115 84 -114 200zM270 1450q0 78 67 78q70 0 123 -70l285 -287h-84 l-297 185q-94 59 -94 94z" />
<glyph unicode="&#xe9;" horiz-adv-x="1013" d="M66 272q0 90 55 162q61 80 172 107v4q-88 35 -123 61q-41 31 -61 82q-16 39 -17 82q0 111 108.5 195t280.5 84q160 -1 271 -64l71 -137q10 -14 0 -21l-71 -45q-23 -14 -37 2l-99 113q-70 80 -118 80q-55 0 -101 -21q-113 -53 -112 -196q0 -20 2 -35q29 -137 159 -137 q8 0 90 6t95 6q31 0 41 -10t10 -51t-9 -51.5t-42 -10.5q-12 0 -94 11.5t-91 11.5q-86 0 -132 -58.5t-46 -142.5q0 -104 92 -166q78 -49 172 -49q131 0 287 123l43 -55l-252 -177h-82q-217 0 -348 97q-115 84 -114 200zM301 1171l284 287q53 70 123 70q68 0 68 -78 q0 -35 -94 -94l-297 -185h-84z" />
<glyph unicode="&#xea;" horiz-adv-x="1013" d="M66 272q0 90 55 162q61 80 172 107v4q-88 35 -123 61q-41 31 -61 82q-16 39 -17 82q0 111 108.5 195t280.5 84q160 -1 271 -64l71 -137q10 -14 0 -21l-71 -45q-23 -14 -37 2l-99 113q-70 80 -118 80q-55 0 -101 -21q-113 -53 -112 -196q0 -20 2 -35q29 -137 159 -137 q8 0 90 6t95 6q31 0 41 -10t10 -51t-9 -51.5t-42 -10.5q-12 0 -94 11.5t-91 11.5q-86 0 -132 -58.5t-46 -142.5q0 -104 92 -166q78 -49 172 -49q131 0 287 123l43 -55l-252 -177h-82q-217 0 -348 97q-115 84 -114 200z" />
<glyph unicode="&#xeb;" horiz-adv-x="1013" d="M66 272q0 90 55 162q61 80 172 107v4q-88 35 -123 61q-41 31 -61 82q-16 39 -17 82q0 111 108.5 195t280.5 84q160 -1 271 -64l71 -137q10 -14 0 -21l-71 -45q-23 -14 -37 2l-99 113q-70 80 -118 80q-55 0 -101 -21q-113 -53 -112 -196q0 -20 2 -35q29 -137 159 -137 q8 0 90 6t95 6q31 0 41 -10t10 -51t-9 -51.5t-42 -10.5q-12 0 -94 11.5t-91 11.5q-86 0 -132 -58.5t-46 -142.5q0 -104 92 -166q78 -49 172 -49q131 0 287 123l43 -55l-252 -177h-82q-217 0 -348 97q-115 84 -114 200zM199 1286q0 39 31.5 72t70.5 33q43 0 74 -32t31 -73 q0 -43 -31 -72.5t-74 -29.5q-41 0 -71.5 30.5t-30.5 71.5zM611 1286q0 39 31.5 72t70.5 33q43 0 73.5 -32t30.5 -73q0 -43 -30.5 -72.5t-73.5 -29.5q-41 0 -71.5 30.5t-30.5 71.5z" />
<glyph unicode="&#xec;" horiz-adv-x="634" d="M80 1450q0 78 67 78q70 0 123 -70l285 -287h-84l-297 185q-94 59 -94 94z" />
<glyph unicode="&#xed;" horiz-adv-x="634" d="M111 1171l284 287q53 70 123 70q68 0 68 -78q0 -35 -94 -94l-297 -185h-84z" />
<glyph unicode="&#xef;" horiz-adv-x="634" d="M8 1286q0 39 32 72t71 33q43 0 73.5 -32t30.5 -73q0 -43 -30.5 -72.5t-73.5 -29.5q-41 0 -72 30.5t-31 71.5zM420 1286q0 39 31.5 72t70.5 33q43 0 74 -32t31 -73q0 -43 -31 -72.5t-74 -29.5q-41 0 -71.5 30.5t-30.5 71.5z" />
<glyph unicode="&#xf0;" horiz-adv-x="1202" d="M78 500q0 246 158 401q152 147 380 148q117 0 224 -54q-72 156 -193 260l-266 -104l-107 70l279 110q-88 64 -221 127l125 47q135 -49 239 -116l258 106l105 -78l-258 -100q162 -129 248 -328q82 -188 81 -403q0 -330 -182 -490q-139 -121 -340 -121q-266 0 -411 175 q-119 145 -119 350zM281 541q0 -217 81 -351q88 -143 248 -143q319 0 320 490q0 203 -99 325q-96 115 -241 115t-230 -131q-79 -121 -79 -305z" />
<glyph unicode="&#xf1;" horiz-adv-x="1347" d="M61 0v53q129 18 146.5 41t17.5 162v567q0 63 -45 78q-23 8 -119 8v54q215 8 345 86l4 -5v-176q156 180 413 181q174 0 244 -101q55 -84 55 -262v-686q0 -35 -3 -118t-3 -124q0 -188 62 -188q31 0 131 53l69 37q27 14 37 4l39 -43q20 -23 8 -35l-82 -94q-20 -29 -80 -29 q-68 0 -215 77t-147 460v633q0 137 -31 203q-51 106 -194 106q-303 0 -303 -436v-250q0 -139 17 -161.5t146 -41.5v-53h-512z" />
<glyph unicode="&#xf2;" horiz-adv-x="1212" d="M78 504q0 223 145 379q156 166 402 166q209 0 350 -131q160 -147 160 -398q0 -227 -150 -383q-155 -162 -397 -162q-211 0 -352 134q-158 145 -158 395zM281 512q0 -205 86 -330q92 -135 254 -135q135 0 219 113q92 123 92 350q0 190 -78 319q-90 147 -258 148 q-139 0 -223 -115q-92 -123 -92 -350zM369 1450q0 78 67 78q70 0 123 -70l285 -287h-84l-297 185q-94 59 -94 94z" />
<glyph unicode="&#xf3;" horiz-adv-x="1212" d="M78 504q0 223 145 379q156 166 402 166q209 0 350 -131q160 -147 160 -398q0 -227 -150 -383q-155 -162 -397 -162q-211 0 -352 134q-158 145 -158 395zM281 512q0 -205 86 -330q92 -135 254 -135q135 0 219 113q92 123 92 350q0 190 -78 319q-90 147 -258 148 q-139 0 -223 -115q-92 -123 -92 -350zM400 1171l284 287q53 70 123 70q68 0 68 -78q0 -35 -94 -94l-297 -185h-84z" />
<glyph unicode="&#xf4;" horiz-adv-x="1212" d="M78 504q0 223 145 379q156 166 402 166q209 0 350 -131q160 -147 160 -398q0 -227 -150 -383q-155 -162 -397 -162q-211 0 -352 134q-158 145 -158 395zM281 512q0 -205 86 -330q92 -135 254 -135q135 0 219 113q92 123 92 350q0 190 -78 319q-90 147 -258 148 q-139 0 -223 -115q-92 -123 -92 -350z" />
<glyph unicode="&#xf5;" horiz-adv-x="1212" d="M78 504q0 223 145 379q156 166 402 166q209 0 350 -131q160 -147 160 -398q0 -227 -150 -383q-155 -162 -397 -162q-211 0 -352 134q-158 145 -158 395zM281 512q0 -205 86 -330q92 -135 254 -135q135 0 219 113q92 123 92 350q0 190 -78 319q-90 147 -258 148 q-139 0 -223 -115q-92 -123 -92 -350z" />
<glyph unicode="&#xf6;" horiz-adv-x="1212" d="M78 504q0 223 145 379q156 166 402 166q209 0 350 -131q160 -147 160 -398q0 -227 -150 -383q-155 -162 -397 -162q-211 0 -352 134q-158 145 -158 395zM281 512q0 -205 86 -330q92 -135 254 -135q135 0 219 113q92 123 92 350q0 190 -78 319q-90 147 -258 148 q-139 0 -223 -115q-92 -123 -92 -350zM297 1286q0 39 31.5 72t70.5 33q43 0 74 -32t31 -73q0 -43 -31 -72.5t-74 -29.5q-41 0 -71.5 30.5t-30.5 71.5zM709 1286q0 39 31.5 72t70.5 33q43 0 73.5 -32t30.5 -73q0 -43 -30.5 -72.5t-73.5 -29.5q-41 0 -71.5 30.5t-30.5 71.5z " />
<glyph unicode="&#xf7;" d="M72 451v135h1032v-135h-1032zM455 168q0 53 38.5 92t92.5 39q53 0 92 -39t39 -92q0 -51 -39 -91t-90 -40q-53 0 -93 39t-40 92zM455 868q0 53 38.5 92t92.5 39q53 0 92 -38.5t39 -92.5q0 -51 -39 -91t-90 -40q-53 0 -93 39t-40 92z" />
<glyph unicode="&#xf8;" horiz-adv-x="1212" d="M78 -18l133 151q-133 143 -133 371q0 223 145 379q156 166 402 166q199 0 313 -101l121 131l65 -57l-116 -131q127 -145 127 -377q0 -203 -134 -358q-154 -180 -413 -181q-178 0 -314 99l-133 -148zM272 512q1 -133 56 -254l520 586q-86 133 -252 133q-141 0 -227 -115 q-96 -125 -97 -350zM371 180q82 -133 250 -133q172 0 256 162q63 125 63 321q0 93 -53 230z" />
<glyph unicode="&#xf9;" horiz-adv-x="1251" d="M25 909v54q213 8 344 86l4 -5v-655q0 -139 35 -207q47 -90 170 -90q147 0 213.5 92t66.5 318v321q0 63 -45 78q-23 8 -119 8v54q215 8 344 86l4 -5v-780q0 -78 11 -108q16 -47 63 -47q29 0 70 16l12 -57l-293 -93q-47 53 -47 158l-180 -104q-92 -53 -191 -54 q-299 0 -299 400v448q0 63 -45 78q-23 8 -118 8zM389 1450q0 78 67 78q70 0 123 -70l285 -287h-84l-297 185q-94 59 -94 94z" />
<glyph unicode="&#xfa;" horiz-adv-x="1251" d="M25 909v54q213 8 344 86l4 -5v-655q0 -139 35 -207q47 -90 170 -90q147 0 213.5 92t66.5 318v321q0 63 -45 78q-23 8 -119 8v54q215 8 344 86l4 -5v-780q0 -78 11 -108q16 -47 63 -47q29 0 70 16l12 -57l-293 -93q-47 53 -47 158l-180 -104q-92 -53 -191 -54 q-299 0 -299 400v448q0 63 -45 78q-23 8 -118 8zM420 1171l284 287q53 70 123 70q68 0 68 -78q0 -35 -94 -94l-297 -185h-84z" />
<glyph unicode="&#xfb;" horiz-adv-x="1251" d="M25 909v54q213 8 344 86l4 -5v-655q0 -139 35 -207q47 -90 170 -90q147 0 213.5 92t66.5 318v321q0 63 -45 78q-23 8 -119 8v54q215 8 344 86l4 -5v-780q0 -78 11 -108q16 -47 63 -47q29 0 70 16l12 -57l-293 -93q-47 53 -47 158l-180 -104q-92 -53 -191 -54 q-299 0 -299 400v448q0 63 -45 78q-23 8 -118 8z" />
<glyph unicode="&#xfc;" horiz-adv-x="1251" d="M25 909v54q213 8 344 86l4 -5v-655q0 -139 35 -207q47 -90 170 -90q147 0 213.5 92t66.5 318v321q0 63 -45 78q-23 8 -119 8v54q215 8 344 86l4 -5v-780q0 -78 11 -108q16 -47 63 -47q29 0 70 16l12 -57l-293 -93q-47 53 -47 158l-180 -104q-92 -53 -191 -54 q-299 0 -299 400v448q0 63 -45 78q-23 8 -118 8zM317 1286q0 39 31.5 72t70.5 33q43 0 74 -32t31 -73q0 -43 -31 -72.5t-74 -29.5q-41 0 -71.5 30.5t-30.5 71.5zM729 1286q0 39 31.5 72t70.5 33q43 0 73.5 -32t30.5 -73q0 -43 -30.5 -72.5t-73.5 -29.5q-41 0 -71.5 30.5 t-30.5 71.5z" />
<glyph unicode="&#xfd;" horiz-adv-x="1138" d="M2 971v53h533v-53q-174 0 -175 -80q1 -18 11 -43l243 -602l260 563q18 41 19 72q0 90 -178 90v53h424v-53q-66 0 -111 -60q-27 -33 -67 -123l-297 -645q51 -121 104 -241q51 -131 51 -213q0 -225 -244 -226q-88 0 -147 54.5t-70 156.5q-12 121 156 404l-342 733 q-35 74 -57 102q-47 57 -113 58zM363 1171l284 287q53 70 123 70q68 0 68 -78q0 -35 -94 -94l-297 -185h-84zM442 -305q0 -84 47 -125q37 -31 82 -31q104 0 107 123q2 74 -31 156q-10 23 -86 182q-119 -184 -119 -305z" />
<glyph unicode="&#xfe;" horiz-adv-x="1202" d="M4 -459q129 18 146.5 41t17.5 162v1536q0 63 -45 78q-23 8 -119 8v53q215 8 344 86l4 -4v-586l154 89q78 45 194 45q424 0 424 -517q0 -188 -131 -358q-154 -199 -395 -199q-131 0 -246 45v-276q0 -98 8 -145q6 -29 60 -41q33 -6 151 -17v-53h-567v53zM352 141 q100 -94 236 -94q334 0 334 483q0 221 -99 330q-82 92 -223 92q-72 0 -131 -42t-84 -113q-33 -97 -33 -308v-348z" />
<glyph unicode="&#xff;" horiz-adv-x="1138" d="M2 971v53h533v-53q-174 0 -175 -80q1 -18 11 -43l243 -602l260 563q18 41 19 72q0 90 -178 90v53h424v-53q-66 0 -111 -60q-27 -33 -67 -123l-297 -645q51 -121 104 -241q51 -131 51 -213q0 -225 -244 -226q-88 0 -147 54.5t-70 156.5q-12 121 156 404l-342 733 q-35 74 -57 102q-47 57 -113 58zM260 1286q0 39 31.5 72t70.5 33q43 0 74 -32t31 -73q0 -43 -31 -72.5t-74 -29.5q-41 0 -71.5 30.5t-30.5 71.5zM442 -305q0 -84 47 -125q37 -31 82 -31q104 0 107 123q2 74 -31 156q-10 23 -86 182q-119 -184 -119 -305zM672 1286 q0 39 31.5 72t70.5 33q43 0 73.5 -32t30.5 -73q0 -43 -30.5 -72.5t-73.5 -29.5q-41 0 -71.5 30.5t-30.5 71.5z" />
<glyph unicode="&#x2000;" horiz-adv-x="948" />
<glyph unicode="&#x2001;" horiz-adv-x="1897" />
<glyph unicode="&#x2002;" horiz-adv-x="948" />
<glyph unicode="&#x2003;" horiz-adv-x="1897" />
<glyph unicode="&#x2004;" horiz-adv-x="632" />
<glyph unicode="&#x2005;" horiz-adv-x="474" />
<glyph unicode="&#x2006;" horiz-adv-x="316" />
<glyph unicode="&#x2007;" horiz-adv-x="316" />
<glyph unicode="&#x2008;" horiz-adv-x="237" />
<glyph unicode="&#x2009;" horiz-adv-x="379" />
<glyph unicode="&#x200a;" horiz-adv-x="105" />
<glyph unicode="&#x2010;" horiz-adv-x="681" d="M86 403v168h510v-168h-510z" />
<glyph unicode="&#x2011;" horiz-adv-x="681" d="M86 403v168h510v-168h-510z" />
<glyph unicode="&#x2012;" horiz-adv-x="681" d="M86 403v168h510v-168h-510z" />
<glyph unicode="&#x2013;" horiz-adv-x="1195" d="M86 403v168h1024v-168h-1024z" />
<glyph unicode="&#x2014;" horiz-adv-x="2219" d="M86 403v168h2048v-168h-2048z" />
<glyph unicode="&#x202f;" horiz-adv-x="379" />
<glyph unicode="&#x205f;" horiz-adv-x="474" />
<glyph unicode="&#x25fc;" horiz-adv-x="1024" d="M0 0v1024h1024v-1024h-1024z" />
</font>
</defs>
</svg>
