<?xml version="1.0" standalone="no"?>
<!DOCTYPE svg PUBLIC "-//W3C//DTD SVG 1.1//EN" "http://www.w3.org/Graphics/SVG/1.1/DTD/svg11.dtd" >
<svg xmlns="http://www.w3.org/2000/svg" xmlns:xlink="http://www.w3.org/1999/xlink" version="1.1">
<metadata></metadata>
<defs>
<font id="nisejsrfregular" horiz-adv-x="1024" >
<font-face units-per-em="2048" ascent="1750" descent="-298" />
<missing-glyph horiz-adv-x="500" />
<glyph horiz-adv-x="0" />
<glyph horiz-adv-x="682" />
<glyph unicode=" " />
<glyph unicode="!" horiz-adv-x="700" d="M100 1450v300h500v-300l-50 -900h-400zM150 0v400h400v-400h-400z" />
<glyph unicode="&#x22;" horiz-adv-x="900" d="M100 1250v500h300l-100 -500h-200zM500 1250v500h300l-100 -500h-200z" />
<glyph unicode="#" horiz-adv-x="0" d="M-1800 1450v300h2100v-300h-2100z" />
<glyph unicode="$" horiz-adv-x="0" d="M-1896 1450v300h1350v-300h-1350zM-346 1450v300h400v-300h-400z" />
<glyph unicode="%" horiz-adv-x="0" d="M-1850 1450v300h200v-300h-200zM-1500 1450v300h200v-300h-200zM-1150 1450v300h250v-300h-250zM-750 1450v300h150v-300h-150zM-400 1450v300h300v-300h-300z" />
<glyph unicode="&#x26;" horiz-adv-x="2100" d="M100 500q38 400 368 494q-54 106 -68 256q50 500 500 500h600v-300h-500q-200 0 -200 -200q0 -206 200 -226h200v-300h-500q-200 -18 -200 -224q0 -200 200 -200h600q100 0 100 100v624h600v-300h-200v-224q0 -500 -500 -500h-700q-450 0 -500 500z" />
<glyph unicode="'" horiz-adv-x="500" d="M100 1250v500h300l-100 -500h-200z" />
<glyph unicode="(" horiz-adv-x="800" d="M300 0q-400 900 0 1750h400q-400 -850 0 -1750h-400z" />
<glyph unicode=")" horiz-adv-x="800" d="M100 0q400 900 0 1750h400q400 -850 0 -1750h-400z" />
<glyph unicode="*" horiz-adv-x="1400" d="M100 350l400 500l-400 550l50 200h200l200 -290v340l150 100l150 -100v-340l200 290h200l50 -200l-400 -550l400 -500l-50 -200h-200l-200 290v-340l-150 -100l-150 100v340l-200 -290h-200z" />
<glyph unicode="+" horiz-adv-x="1700" d="M100 724v300h600v526h300v-526h600v-300h-600v-524h-300v524h-600z" />
<glyph unicode="," horiz-adv-x="500" d="M100 -200v500h300l-100 -500h-200z" />
<glyph unicode="-" horiz-adv-x="1700" d="M100 724v300h1500v-300h-1500z" />
<glyph unicode="." horiz-adv-x="500" d="M100 0v300h300v-300h-300z" />
<glyph unicode="/" horiz-adv-x="1700" d="M100 0l1100 1750h400l-1100 -1750h-400z" />
<glyph unicode="0" horiz-adv-x="2000" d="M100 400v950q0 400 500 400h800q500 0 500 -400v-950q0 -400 -500 -400h-800q-500 0 -500 400zM500 400q0 -100 100 -100h800q100 0 100 100v950q0 100 -100 100h-800q-100 0 -100 -100v-950z" />
<glyph unicode="1" horiz-adv-x="2000" d="M100 0v300h700v1170l-150 -120h-450l450 350q50 50 200 50h350v-1450h700v-300h-1800z" />
<glyph unicode="2" horiz-adv-x="1800" d="M0 0v650q0 374 500 374h700q200 0 200 226q0 200 -200 200h-1200v300h1300q450 0 500 -500q-50 -526 -500 -526h-800q-100 0 -100 -74v-250h1400v-400h-1800z" />
<glyph unicode="3" horiz-adv-x="2000" d="M100 0v300h1200q200 0 200 200q0 206 -200 224h-800v300h800q200 20 200 226q0 200 -200 200h-1200v300h1300q450 0 500 -500q-20 -240 -130 -370q110 -126 130 -380q-50 -500 -500 -500h-1300z" />
<glyph unicode="4" horiz-adv-x="2000" d="M100 800v950h400v-950q0 -100 100 -100h500v1050h400v-1050h400v-300h-400v-400h-400v400h-500q-500 0 -500 400z" />
<glyph unicode="5" horiz-adv-x="2000" d="M100 0v300h1200q200 0 200 200q0 224 -200 224h-1200v1026h1800v-400h-1400v-326h900q500 0 500 -424v-200q0 -400 -500 -400h-1300z" />
<glyph unicode="6" horiz-adv-x="2000" d="M100 500v750q0 500 500 500h1300v-400h-1300q-100 0 -100 -100v-226h900q450 0 500 -524q-50 -500 -500 -500h-800q-450 0 -500 500zM500 500q0 -200 200 -200h600q200 0 200 200q0 224 -200 224h-700h-100v-224z" />
<glyph unicode="7" horiz-adv-x="2000" d="M100 1450v300h1800v-600q0 -400 -500 -400h-100q-100 0 -100 -100v-650h-400v650q0 400 500 400h100q100 0 100 100v300h-1400z" />
<glyph unicode="8" horiz-adv-x="2000" d="M100 500q20 254 130 380q-110 130 -130 370q50 500 500 500h800q450 0 500 -500q-20 -240 -130 -370q110 -126 130 -380q-50 -500 -500 -500h-800q-450 0 -500 500zM500 500q0 -200 200 -200h600q200 0 200 200q0 206 -200 224h-600q-200 -18 -200 -224zM500 1250 q0 -206 200 -226h600q200 20 200 226q0 200 -200 200h-600q-200 0 -200 -200z" />
<glyph unicode="9" horiz-adv-x="2000" d="M100 0v400h1300q100 0 100 100v224h-900q-450 0 -500 526q50 500 500 500h800q450 0 500 -500v-750q0 -500 -500 -500h-1300zM500 1250q0 -226 200 -226h700h100v226q0 200 -200 200h-600q-200 0 -200 -200z" />
<glyph unicode=":" horiz-adv-x="500" d="M100 0v300h300v-300h-300zM100 724v300h300v-300h-300z" />
<glyph unicode=";" horiz-adv-x="500" d="M100 -200v500h300l-100 -500h-200zM100 724v300h300v-300h-300z" />
<glyph unicode="&#x3c;" horiz-adv-x="0" d="M-350 900v300h700v-300h-700z" />
<glyph unicode="=" horiz-adv-x="1700" d="M100 424v300h1500v-300h-1500zM100 1024v300h1500v-300h-1500z" />
<glyph unicode="&#x3e;" horiz-adv-x="0" d="M-350 0v300h700v-300h-700z" />
<glyph unicode="?" horiz-adv-x="1600" d="M100 1450v300h900q500 0 500 -400v-226q0 -400 -500 -400q-200 0 -200 -174h-400v174q0 300 500 300h100q100 0 100 100v226q0 100 -100 100h-900zM400 0v400h400v-400h-400z" />
<glyph unicode="@" horiz-adv-x="1700" d="M100 400l750 -458l750 458v850l-400 250l-300 -200l400 -250v-450l-450 -284l-450 284v450l750 500l-300 200l-750 -500v-850zM142 418v816l708 466l224 -150l-716 -466v-518l492 -300l484 300v508l-366 226l232 150l358 -218v-814l-708 -426zM158 434v782l692 466 l190 -132l-700 -450v-550l510 -310l502 310v542l-350 208l198 132l340 -208v-790l-690 -416zM442 650l408 -258l408 258v358l-408 258l-408 -258v-358zM484 668v322l366 234l374 -232v-326l-374 -232zM510 684v282l340 216l340 -216v-282l-340 -216zM682 716l168 -92 l168 102v198l-168 102l-168 -102v-208zM716 726v190l134 76l134 -76v-182l-134 -76zM750 750l100 -50l100 50v150l-100 50l-100 -50v-150z" />
<glyph unicode="A" horiz-adv-x="2200" d="M0 0l1450 1650q150 100 350 100h50q250 0 250 -300v-1450h-400v724h-534l-616 -724h-550zM1364 1024h336v326q0 53 -22 53q-11 0 -28 -13z" />
<glyph unicode="B" horiz-adv-x="2000" d="M100 0v1750h1300q450 0 500 -500q-20 -240 -130 -370q110 -126 130 -380q-50 -500 -500 -500h-1300zM500 300h800q200 0 200 200q0 206 -200 224h-800v-424zM500 1024h800q200 20 200 226q0 200 -200 200h-800v-426z" />
<glyph unicode="C" horiz-adv-x="2100" d="M100 400v950q0 400 500 400h1400v-300h-1400q-100 0 -100 -100v-950q0 -100 100 -100h1400v-300h-1400q-500 0 -500 400z" />
<glyph unicode="D" horiz-adv-x="2400" d="M100 0v1750h1700q500 0 500 -400v-950q0 -400 -500 -400h-1700zM500 300h1300q100 0 100 100v950q0 100 -100 100h-1300v-1150z" />
<glyph unicode="E" horiz-adv-x="2000" d="M100 400v950q0 400 500 400h1300v-300h-1300q-100 0 -100 -100v-326h1050v-300h-1050v-324q0 -100 100 -100h1300v-300h-1300q-500 0 -500 400z" />
<glyph unicode="F" horiz-adv-x="2000" d="M100 0v1350q0 400 500 400h1300v-300h-1300q-100 0 -100 -100v-326h1050v-300h-1050v-724h-400z" />
<glyph unicode="G" horiz-adv-x="2100" d="M100 400v950q0 400 500 400h1400v-300h-1400q-100 0 -100 -100v-950q0 -100 100 -100h900q100 0 100 100v324h-400v300h800v-624q0 -400 -500 -400h-900q-500 0 -500 400z" />
<glyph unicode="H" horiz-adv-x="2000" d="M100 0v1750h400v-726h1000v726h400v-1750h-400v724h-1000v-724h-400z" />
<glyph unicode="I" horiz-adv-x="602" d="M100 0v1750h400v-1750h-400z" />
<glyph unicode="J" horiz-adv-x="2100" d="M100 400v250h400v-250q0 -100 100 -100h900q100 0 100 100v1350h400v-1350q0 -400 -500 -400h-900q-500 0 -500 400z" />
<glyph unicode="K" horiz-adv-x="2000" d="M100 0v1750h400v-726h800q200 0 200 226v500h400v-500q-20 -240 -130 -370q110 -126 130 -380v-500h-400v500q0 224 -200 224h-800v-724h-400z" />
<glyph unicode="L" horiz-adv-x="2000" d="M100 400v1350h400v-1350q0 -100 100 -100h1300v-300h-1300q-500 0 -500 400z" />
<glyph unicode="M" horiz-adv-x="2200" d="M100 0v1750h1500q500 0 500 -400v-1350h-400v1350q0 100 -100 100h-300v-1450h-400v1450h-400v-1450h-400z" />
<glyph unicode="N" horiz-adv-x="2000" d="M100 0v1750h1300q500 0 500 -400v-1350h-400v1350q0 100 -100 100h-900v-1450h-400z" />
<glyph unicode="O" horiz-adv-x="2600" d="M100 400v950q0 400 500 400h1400q500 0 500 -400v-950q0 -400 -500 -400h-1400q-500 0 -500 400zM500 400q0 -100 100 -100h1400q100 0 100 100v950q0 100 -100 100h-1400q-100 0 -100 -100v-950z" />
<glyph unicode="P" horiz-adv-x="2000" d="M100 0v1750h1300q450 0 500 -500q-50 -526 -500 -526h-900v-724h-400zM500 1024h800q200 0 200 226q0 200 -200 200h-800v-426z" />
<glyph unicode="Q" horiz-adv-x="2400" d="M100 400v950q0 400 500 400h1200q500 0 500 -400v-950q0 -400 -500 -400h-274l74 -150h-400l-74 150h-526q-500 0 -500 400zM500 400q0 -100 100 -100h376l-226 350h400l226 -350h424q100 0 100 100v950q0 100 -100 100h-1200q-100 0 -100 -100v-950z" />
<glyph unicode="R" horiz-adv-x="2000" d="M100 0v1750h1300q450 0 500 -500q-20 -240 -130 -372q110 -124 130 -378v-500h-400v500q0 224 -200 224h-800v-724h-400zM500 1024h800q200 0 200 226q0 200 -200 200h-800v-426z" />
<glyph unicode="S" horiz-adv-x="2150" d="M100 0v300h1350q200 0 200 200q0 224 -200 224h-850q-450 0 -500 526q50 500 500 500h1450v-300h-1350q-200 0 -200 -200q0 -226 200 -226h750q550 0 600 -524q-50 -500 -600 -500h-1350z" />
<glyph unicode="T" horiz-adv-x="1800" d="M100 1450v300h1600v-300h-600v-1450h-400v1450h-600z" />
<glyph unicode="U" horiz-adv-x="2000" d="M100 400v1350h400v-1350q0 -100 100 -100h800q100 0 100 100v1350h400v-1350q0 -400 -500 -400h-800q-500 0 -500 400z" />
<glyph unicode="V" horiz-adv-x="2000" d="M100 0v1750h400v-1450h900q100 0 100 100v1350h400v-1350q0 -400 -500 -400h-1300z" />
<glyph unicode="W" horiz-adv-x="2200" d="M100 0v1750h400v-1450h400v1450h400v-1450h300q100 0 100 100v1350h400v-1350q0 -400 -500 -400h-1500z" />
<glyph unicode="X" horiz-adv-x="2000" d="M100 0v500q20 254 130 380q-110 130 -130 370v500h400v-500q0 -226 200 -226h600q200 0 200 226v500h400v-500q-20 -240 -130 -370q110 -126 130 -380v-500h-400v500q0 224 -200 224h-600q-200 0 -200 -224v-500h-400z" />
<glyph unicode="Y" horiz-adv-x="2000" d="M100 1124v626h400v-626q0 -100 100 -100h800q100 0 100 100v626h400v-626q0 -400 -500 -400h-200v-724h-400v724h-200q-500 0 -500 400z" />
<glyph unicode="Z" horiz-adv-x="2000" d="M100 0v300q0 150 200 250l1200 900h-1400v300h1800v-300q0 -150 -200 -250l-1200 -900h1400v-300h-1800z" />
<glyph unicode="[" horiz-adv-x="0" d="M-350 900v300h1150l-200 -300h-950z" />
<glyph unicode="\" horiz-adv-x="1700" d="M100 1750h400l1100 -1750h-400z" />
<glyph unicode="]" horiz-adv-x="0" d="M-350 0v300h950l200 -300h-1150z" />
<glyph unicode="^" horiz-adv-x="1200" d="M100 1150v300l500 300l500 -300v-300l-500 300z" />
<glyph unicode="_" horiz-adv-x="1600" d="M-100 0h1800v-300h-1800v300z" />
<glyph unicode="`" horiz-adv-x="3628" d="M100 928v46q154 22 233 38t154 48t193 116v-136l168 12q32 74 128 124q100 44 116 82l120 330q64 128 188 162h828q124 -34 188 -162l120 -330q16 -38 116 -82q96 -50 128 -124l168 -16v140q118 -84 193 -116t154 -48t233 -38v-46q-156 -22 -238 -43t-152 -56t-190 -121 v144l-168 -4q-108 -128 -275 -167t-239 -77t-162 -101t-137 -167t-47 -180t15 -114t92 -149t93 -145v-44h-612v44q16 34 93 145t92 149t15 114t-47 180t-137 167t-162 101t-239 77t-275 167l-168 4v-128q-120 70 -190 105t-152 56t-238 43zM130 948l262 -28v-26l46 -14v32 l52 -4v-44l50 -28v62l52 -6v-70q28 -20 52 -38v106l192 -8q-16 62 0 140l-192 -16v106q-24 -18 -52 -38v-70l-52 -6v62l-50 -28v-44l-52 -4v32l-46 -14v-26zM1166 1252q56 14 111 26t102 19t142 36t291 27q182 4 278 -26t143 -37t102 -19t111 -26q-46 100 -132 252 q-64 70 -160 76h-696q-96 -6 -160 -76q-86 -152 -132 -252zM1204 892q22 -130 172 -264q140 -84 198 -130t94 -106t52 -108t16 -150t-70 -198q-100 -144 -126 -184v-28h548v28q-26 40 -126 184q-70 96 -70 198t16 150t52 108t94 106t198 130q150 134 172 264q8 104 -18 182 t-100 130t-176 93t-316 39q-214 2 -316 -39t-176 -93t-100 -130t-18 -182zM1428 771q0 59 36 93q38 16 93 -12t85 -78q42 -64 36 -122t-50 -84q-40 -14 -89 16t-79 72q-32 56 -32 115zM1650 800v100h50v-100h-50zM1676 -98l102 100v-202zM1722 672v100h50v-100h-50z M1722 800v100h50v-100h-50zM1790 544v100h50v-100h-50zM1790 672v100h50v-100h-50zM1790 800v100h50v-100h-50zM1850 2l102 -100l-102 -102v202zM1856 672v100h50v-100h-50zM1856 800v100h50v-100h-50zM1928 800v100h50v-100h-50zM1950 652q-6 58 36 122q30 50 85 78t93 12 q36 -34 36 -93t-32 -115q-30 -42 -79 -72t-89 -16q-44 26 -50 84zM2792 882l192 8v-106q24 18 52 38v70l52 6v-62l50 28v44l52 4v-32l46 14v26l262 28l-262 28v26l-46 14v-32l-52 4v44l-50 28v-62l-52 6v70q-28 20 -52 38v-106l-192 16q16 -78 0 -140z" />
<glyph unicode="a" horiz-adv-x="2200" d="M0 0l1450 1100q150 100 350 100h50q250 0 250 -300v-900h-400v450h-550l-600 -450h-550zM1532 750h168v50q0 53 -22 53q-11 0 -28 -13z" />
<glyph unicode="b" horiz-adv-x="2000" d="M100 0v1200h1300q450 0 500 -350v-50q-18 -120 -82 -200q64 -80 82 -200v-50q-50 -350 -500 -350h-1300zM502 300h898q100 0 100 74q0 76 -100 76h-898v-150zM502 750h898q100 0 100 74q0 76 -100 76h-898v-150z" />
<glyph unicode="c" horiz-adv-x="2100" d="M100 400v400q0 400 500 400h1400v-300h-1400q-100 0 -100 -100v-400q0 -100 100 -100h1400v-300h-1400q-500 0 -500 400z" />
<glyph unicode="d" horiz-adv-x="2400" d="M100 0v1200h1700q500 0 500 -400v-400q0 -400 -500 -400h-1700zM500 300h1300q100 0 100 100v400q0 100 -100 100h-1300v-600z" />
<glyph unicode="e" horiz-adv-x="2000" d="M100 400v400q0 400 500 400h1300v-300h-1300q-100 0 -100 -100v-50h1050v-300h-1050v-50q0 -100 100 -100h1300v-300h-1300q-500 0 -500 400z" />
<glyph unicode="f" horiz-adv-x="2000" d="M100 0v800q0 400 500 400h1300v-300h-1300q-100 0 -100 -100v-50h1050v-300h-1050v-450h-400z" />
<glyph unicode="g" horiz-adv-x="2100" d="M100 400v400q0 400 500 400h1400v-300h-1400q-100 0 -100 -100v-400q0 -100 100 -100h900q100 0 100 100v50h-400v300h800v-350q0 -400 -500 -400h-900q-500 0 -500 400z" />
<glyph unicode="h" horiz-adv-x="2000" d="M100 0v1200h400v-450h1000v450h400v-1200h-400v450h-1000v-450h-400z" />
<glyph unicode="i" horiz-adv-x="602" d="M100 0v1200h400v-1200h-400z" />
<glyph unicode="j" horiz-adv-x="2100" d="M100 400v250h400v-250q0 -100 100 -100h900q100 0 100 100v800h400v-800q0 -400 -500 -400h-900q-500 0 -500 400z" />
<glyph unicode="k" horiz-adv-x="2000" d="M100 0v1200h400v-450h900q100 0 100 100v350h400v-350q0 -200 -82 -250q82 -50 82 -250v-350h-400v350q0 100 -100 100h-900v-450h-400z" />
<glyph unicode="l" horiz-adv-x="2000" d="M100 400v800h400v-800q0 -100 100 -100h1300v-300h-1300q-500 0 -500 400z" />
<glyph unicode="m" horiz-adv-x="2200" d="M100 0v1200h1500q500 0 500 -400v-800h-400v800q0 100 -100 100h-300v-900h-400v900h-400v-900h-400z" />
<glyph unicode="n" horiz-adv-x="2000" d="M100 0v1200h1300q500 0 500 -400v-800h-400v800q0 100 -100 100h-900v-900h-400z" />
<glyph unicode="o" horiz-adv-x="2600" d="M100 400v400q0 400 500 400h1400q500 0 500 -400v-400q0 -400 -500 -400h-1400q-500 0 -500 400zM500 400q0 -100 100 -100h1400q100 0 100 100v400q0 100 -100 100h-1402q-100 0 -98 -100v-400z" />
<glyph unicode="p" horiz-adv-x="2000" d="M100 0v1200h1300q450 0 500 -350v-50q-50 -350 -500 -350h-900v-450h-400zM500 750h900q100 0 100 74q0 76 -100 76h-900v-150z" />
<glyph unicode="q" horiz-adv-x="2400" d="M100 400v400q0 400 500 400h1200q500 0 500 -400v-400q0 -400 -500 -400h-274l74 -150h-400l-74 150h-526q-500 0 -500 400zM500 400q0 -100 100 -100h376l-76 150h400l76 -150h424q100 0 100 100v400q0 100 -100 100h-1200q-100 0 -100 -100v-400z" />
<glyph unicode="r" horiz-adv-x="2000" d="M100 0v1200h1300q450 0 500 -350v-50q-20 -120 -80 -200q80 -50 80 -200v-400h-400v350q0 100 -100 100h-900v-450h-400zM500 750h900q100 0 100 74q0 76 -100 76h-900v-150z" />
<glyph unicode="s" horiz-adv-x="2150" d="M100 0v300h1450q100 0 100 74q0 76 -100 76h-950q-450 0 -500 350v50q50 350 500 350h1450v-300h-1450q-100 0 -100 -76q0 -74 100 -74h950q450 0 500 -350v-50q-50 -350 -500 -350h-1450z" />
<glyph unicode="t" horiz-adv-x="1800" d="M100 900v300h1600v-300h-600v-900h-400v900h-600z" />
<glyph unicode="u" horiz-adv-x="2000" d="M100 400v800h400v-800q0 -100 100 -100h800q100 0 100 100v800h400v-800q0 -400 -500 -400h-800q-500 0 -500 400z" />
<glyph unicode="v" horiz-adv-x="2000" d="M100 0v1200h400v-900h900q100 0 100 100v800h400v-800q0 -400 -500 -400h-1300z" />
<glyph unicode="w" horiz-adv-x="2200" d="M100 0v1200h400v-900h400v900h400v-900h300q100 0 100 100v800h400v-800q0 -400 -500 -400h-1500z" />
<glyph unicode="x" horiz-adv-x="2000" d="M100 0v350q0 200 100 250q-100 50 -100 250v350h400v-350q0 -100 100 -100h800q100 0 100 100v350h400v-350q0 -200 -100 -250q100 -50 100 -250v-350h-400v350q0 100 -100 100h-800q-100 0 -100 -100v-350h-400z" />
<glyph unicode="y" horiz-adv-x="2000" d="M100 850v350h400v-350q0 -100 100 -100h800q100 0 100 100v350h400v-350q0 -400 -500 -400h-200v-450h-400v450h-200q-500 0 -500 400z" />
<glyph unicode="z" horiz-adv-x="2000" d="M100 0v300q0 150 150 200l1250 400h-1400v300h1800v-300q0 -150 -150 -200l-1250 -400h1400v-300h-1800z" />
<glyph unicode="{" horiz-adv-x="0" d="M-800 1200h1150v-300h-950z" />
<glyph unicode="|" horiz-adv-x="600" d="M100 -200v1950h400v-1950h-400z" />
<glyph unicode="}" horiz-adv-x="0" d="M-800 0l200 300h950v-300h-1150z" />
<glyph unicode="~" horiz-adv-x="1700" d="M100 1300v300q400 250 750 0t750 0v-300q-400 -250 -750 0t-750 0z" />
<glyph unicode="&#xa0;" />
<glyph unicode="&#xa1;" />
<glyph unicode="&#xa2;" />
<glyph unicode="&#xa3;" />
<glyph unicode="&#xa4;" />
<glyph unicode="&#xa5;" />
<glyph unicode="&#xa6;" />
<glyph unicode="&#xa7;" />
<glyph unicode="&#xa8;" />
<glyph unicode="&#xa9;" />
<glyph unicode="&#xaa;" />
<glyph unicode="&#xab;" />
<glyph unicode="&#xac;" />
<glyph unicode="&#xad;" />
<glyph unicode="&#xae;" />
<glyph unicode="&#xaf;" />
<glyph unicode="&#xb0;" />
<glyph unicode="&#xb1;" />
<glyph unicode="&#xb2;" />
<glyph unicode="&#xb3;" />
<glyph unicode="&#xb4;" />
<glyph unicode="&#xb5;" />
<glyph unicode="&#xb6;" />
<glyph unicode="&#xb7;" />
<glyph unicode="&#xb8;" />
<glyph unicode="&#xb9;" />
<glyph unicode="&#xba;" />
<glyph unicode="&#xbb;" />
<glyph unicode="&#xbc;" />
<glyph unicode="&#xbd;" />
<glyph unicode="&#xbe;" />
<glyph unicode="&#xbf;" />
<glyph unicode="&#xc0;" />
<glyph unicode="&#xc1;" />
<glyph unicode="&#xc2;" />
<glyph unicode="&#xc3;" />
<glyph unicode="&#xc4;" />
<glyph unicode="&#xc5;" />
<glyph unicode="&#xc6;" />
<glyph unicode="&#xc7;" />
<glyph unicode="&#xc8;" />
<glyph unicode="&#xc9;" />
<glyph unicode="&#xca;" />
<glyph unicode="&#xcb;" />
<glyph unicode="&#xcc;" />
<glyph unicode="&#xcd;" />
<glyph unicode="&#xce;" />
<glyph unicode="&#xcf;" />
<glyph unicode="&#xd0;" />
<glyph unicode="&#xd1;" />
<glyph unicode="&#xd2;" />
<glyph unicode="&#xd3;" />
<glyph unicode="&#xd4;" />
<glyph unicode="&#xd5;" />
<glyph unicode="&#xd6;" />
<glyph unicode="&#xd7;" />
<glyph unicode="&#xd8;" />
<glyph unicode="&#xd9;" />
<glyph unicode="&#xda;" />
<glyph unicode="&#xdb;" />
<glyph unicode="&#xdc;" />
<glyph unicode="&#xdd;" />
<glyph unicode="&#xde;" />
<glyph unicode="&#xdf;" />
<glyph unicode="&#xe0;" />
<glyph unicode="&#xe1;" />
<glyph unicode="&#xe2;" />
<glyph unicode="&#xe3;" />
<glyph unicode="&#xe4;" />
<glyph unicode="&#xe5;" />
<glyph unicode="&#xe6;" />
<glyph unicode="&#xe7;" />
<glyph unicode="&#xe8;" />
<glyph unicode="&#xe9;" />
<glyph unicode="&#xea;" />
<glyph unicode="&#xeb;" />
<glyph unicode="&#xec;" />
<glyph unicode="&#xed;" />
<glyph unicode="&#xee;" />
<glyph unicode="&#xef;" />
<glyph unicode="&#xf0;" />
<glyph unicode="&#xf1;" />
<glyph unicode="&#xf2;" />
<glyph unicode="&#xf3;" />
<glyph unicode="&#xf4;" />
<glyph unicode="&#xf5;" />
<glyph unicode="&#xf6;" />
<glyph unicode="&#xf7;" />
<glyph unicode="&#xf8;" />
<glyph unicode="&#xf9;" />
<glyph unicode="&#xfa;" />
<glyph unicode="&#xfb;" />
<glyph unicode="&#xfc;" />
<glyph unicode="&#xfd;" />
<glyph unicode="&#xfe;" />
<glyph unicode="&#xff;" />
<glyph unicode="&#x152;" />
<glyph unicode="&#x153;" />
<glyph unicode="&#x178;" />
<glyph unicode="&#x2c6;" />
<glyph unicode="&#x2dc;" />
<glyph unicode="&#x2000;" horiz-adv-x="875" />
<glyph unicode="&#x2001;" horiz-adv-x="1750" />
<glyph unicode="&#x2002;" horiz-adv-x="875" />
<glyph unicode="&#x2003;" horiz-adv-x="1750" />
<glyph unicode="&#x2004;" horiz-adv-x="583" />
<glyph unicode="&#x2005;" horiz-adv-x="437" />
<glyph unicode="&#x2006;" horiz-adv-x="291" />
<glyph unicode="&#x2007;" horiz-adv-x="291" />
<glyph unicode="&#x2008;" horiz-adv-x="218" />
<glyph unicode="&#x2009;" horiz-adv-x="350" />
<glyph unicode="&#x200a;" horiz-adv-x="97" />
<glyph unicode="&#x2010;" horiz-adv-x="1700" d="M100 724v300h1500v-300h-1500z" />
<glyph unicode="&#x2011;" horiz-adv-x="1700" d="M100 724v300h1500v-300h-1500z" />
<glyph unicode="&#x2012;" horiz-adv-x="1700" d="M100 724v300h1500v-300h-1500z" />
<glyph unicode="&#x2013;" />
<glyph unicode="&#x2014;" />
<glyph unicode="&#x2018;" />
<glyph unicode="&#x2019;" />
<glyph unicode="&#x201a;" />
<glyph unicode="&#x201c;" />
<glyph unicode="&#x201d;" />
<glyph unicode="&#x201e;" />
<glyph unicode="&#x2022;" />
<glyph unicode="&#x2026;" />
<glyph unicode="&#x202f;" horiz-adv-x="350" />
<glyph unicode="&#x2039;" />
<glyph unicode="&#x203a;" />
<glyph unicode="&#x205f;" horiz-adv-x="437" />
<glyph unicode="&#x20ac;" />
<glyph unicode="&#x2122;" />
<glyph unicode="&#x25fc;" horiz-adv-x="1200" d="M0 0v1200h1200v-1200h-1200z" />
</font>
</defs>
</svg>
